<svg width="177" height="100" fill="none" xmlns="http://www.w3.org/2000/svg"><path d="M75.546 40.621v-2.37h-1.318v2.252c0 .403-.373.674-1.003.674-.658 0-1.017-.261-1.017-.679v-2.247h-1.333v2.247c0 1.17.959 1.667 2.296 1.667 1.431 0 2.375-.502 2.375-1.544zm4.437 1.489v-1.027h-2.35v-2.832h-1.332v3.86h3.682zm3.96-2.89v-.969h-4.607v.969h1.628v2.89h1.347v-2.89h1.632zm1.771 2.89v-3.859h-1.352v3.86h1.352zm6.203 0v-3.859h-1.666l-1.053 2.316-1.002-2.316h-1.721v3.86h1.253v-2.085l.905 2.085h1.121l.914-2.085v2.085h1.25zm2.088-.712h2.085l.34.713h1.42l-1.947-3.86h-1.588l-2.06 3.86h1.392l.358-.713zm1.667-.866h-1.234l.487-.929.147-.354.138.35.462.934zm6.357-1.312v-.969h-4.606v.969h1.627v2.89h1.347v-2.89h1.632zm4.48 2.89v-.958h-2.767v-.502h2.654v-.938h-2.654v-.497h2.733v-.964h-4.031v3.86h4.065zm-25.586 2.052H79.65s-.831 2.429-.831 2.488c0-.059-.777-2.488-.777-2.488h-1.381s-.772 2.429-.772 2.488c0-.059-.836-2.488-.836-2.488h-1.43l1.445 3.86h1.44s.777-2.306.782-2.37c.005.064.777 2.37.777 2.37h1.445l1.411-3.86zm1.742 3.86v-3.86h-1.352v3.86h1.352zm5.259 0v-3.86h-1.258v2.1l-1.854-2.1h-1.386v3.86h1.268v-2.149l1.913 2.149h1.317zm5.267 0v-3.86h-1.258v2.1l-1.854-2.1h-1.386v3.86h1.268v-2.149l1.913 2.149h1.317zm4.835 0v-.959h-2.768v-.502h2.655v-.938h-2.655v-.497h2.733v-.964H93.96v3.86h4.066zm5.197-2.685c0-.349-.084-.6-.261-.781-.231-.246-.629-.394-1.239-.394h-3.072v3.86h1.312V46.66h1.195l.959 1.362h1.465l-1.165-1.574a.942.942 0 00.609-.383c.123-.172.197-.428.197-.728zm-1.278.123a.41.41 0 01-.045.202c-.049.098-.177.138-.388.138h-1.544v-.704h1.519c.207 0 .345.035.413.163.035.049.045.127.045.201zM76.1 51.819v-1.886h-.46v1.856c0 .438-.412.687-1.006.687-.702 0-1.047-.267-1.047-.69v-1.853h-.464v1.837c0 .773.601 1.114 1.492 1.114.92 0 1.485-.364 1.485-1.065zm3.303 1.028v-.427h-2.008v-2.487h-.464v2.914h2.472zm2.637-2.491v-.423h-3.096v.423h1.314v2.491h.468v-2.491h1.314zm3.3.401a.867.867 0 00-.123-.483c-.137-.204-.401-.341-.839-.341h-1.886v2.914h.457v-1.229h1.329l.813 1.229h.534l-.88-1.307a.643.643 0 00.49-.315.928.928 0 00.105-.468zm-.46.037a.609.609 0 01-.053.249c-.06.107-.197.163-.42.167h-1.455v-.861h1.37c.279 0 .427.066.505.193.034.059.052.16.052.252zm1.78 1.333h1.816l.371.72h.498l-1.478-2.914h-.546l-1.525 2.914h.486l.379-.72zm1.623-.412H86.86l.59-1.118.13-.27.13.27.572 1.118zm5.77.854c.115-.134.167-.323.167-.528 0-.193-.056-.386-.17-.505a.86.86 0 00-.506-.222.451.451 0 00.275-.171c.1-.115.16-.3.16-.486a.678.678 0 00-.186-.498c-.137-.137-.371-.226-.698-.226h-1.96v2.914h2.105c.394 0 .668-.1.813-.278zm-.553-1.82a.43.43 0 01-.112.312c-.07.078-.189.112-.315.112h-1.485v-.84h1.4c.17 0 .3.034.39.116a.411.411 0 01.122.3zm.148 1.537c-.093.104-.252.156-.486.156h-1.574v-.865h1.585c.215 0 .364.045.453.13a.386.386 0 01.115.294c0 .118-.026.219-.093.285zm3.942.561v-.427h-2.264v-.831H97.5v-.424h-2.175v-.809h2.238v-.423h-2.691v2.914h2.717zm3.627-.861c0-.475-.315-.72-1.091-.81-.13-.018-.413-.048-.565-.066-.72-.086-.939-.182-.939-.431 0-.241.241-.379.969-.379.564 0 .854.112.999.312a.461.461 0 01.074.175h.497a1.031 1.031 0 00-.1-.301c-.2-.345-.612-.594-1.47-.594-1.025-.004-1.448.367-1.448.828 0 .46.33.694 1.188.794.149.019.412.048.542.063.665.082.873.182.873.46 0 .257-.238.443-1 .443-.623 0-.957-.112-1.09-.327a.476.476 0 01-.071-.215h-.49a.968.968 0 00.115.393c.193.353.646.557 1.522.557 1.047 0 1.485-.338 1.485-.902zm3.329-1.63v-.423h-3.096v.423h1.314v2.491h.468v-2.491h1.314zM71.809 55.38c0-.297-.06-.498-.16-.65-.14-.219-.416-.334-.895-.334h-1.84v2.914h.46v-.95h1.362c.45-.004.757-.108.92-.345.104-.145.153-.353.153-.635zm-.468 0c0 .148-.015.26-.063.334-.086.137-.26.223-.62.223h-1.285v-1.125h1.3c.338 0 .512.078.605.23.044.067.063.19.063.338zm3.828 1.93v-.427h-2.265v-.831h2.176v-.423h-2.176v-.81h2.239v-.423h-2.692v2.914h2.718zm3.541-2.09a.866.866 0 00-.122-.482c-.137-.205-.401-.342-.84-.342h-1.885v2.914h.457v-1.228h1.329l.813 1.228h.534l-.88-1.306a.643.643 0 00.49-.316.93.93 0 00.104-.468zm-.46.037a.609.609 0 01-.052.25c-.06.107-.197.163-.42.166h-1.455v-.861h1.37c.279 0 .427.067.505.193a.56.56 0 01.052.252zm3.902-.437v-.424h-2.591v2.914h.46v-1.24h2.035v-.434H80.02v-.817h2.131zm2.113-.476c-.62 0-1.047.152-1.351.472-.256.248-.368.594-.368 1.028 0 .475.145.832.412 1.073.286.286.724.434 1.307.434.602 0 1.07-.148 1.348-.449.241-.245.367-.594.367-1.062 0-.453-.108-.798-.364-1.043-.293-.304-.731-.453-1.35-.453zm0 2.591c-.408 0-.698-.089-.917-.267-.223-.182-.33-.46-.33-.817 0-.334.093-.612.27-.78.205-.192.517-.307.973-.307.472 0 .765.111.984.304.186.163.267.453.267.78 0 .33-.085.612-.274.783-.22.204-.527.304-.973.304zm5.198-1.715a.867.867 0 00-.122-.482c-.137-.205-.401-.342-.84-.342h-1.885v2.914h.457v-1.228h1.329l.813 1.228h.534l-.88-1.306a.643.643 0 00.49-.316.928.928 0 00.104-.468zm-.46.037a.609.609 0 01-.052.25c-.06.107-.197.163-.42.166h-1.455v-.861h1.37c.279 0 .427.067.505.193a.56.56 0 01.052.252zm4.901 2.053v-2.914h-.602l-1.199 2.398-1.177-2.398h-.612v2.914h.442v-2.242l1.099 2.242h.482l1.125-2.242v2.242h.442zm1.303-.72h1.816l.371.72h.498l-1.478-2.914h-.546l-1.525 2.914h.486l.379-.72zm1.623-.412h-1.422l.59-1.117.13-.271.13.27.572 1.118zm4.406 1.132v-2.914h-.442v2.265l-1.93-2.265h-.523v2.914h.449v-2.279l1.945 2.28h.501zm4.005-1.087h-.483a.647.647 0 01-.16.367c-.2.234-.519.334-1.009.334-.412 0-.854-.115-1.066-.416-.111-.14-.182-.348-.182-.66 0-.279.049-.487.156-.628.178-.285.553-.434 1.081-.434.512 0 .835.141 1.006.338a.649.649 0 01.17.371h.483a1.123 1.123 0 00-.178-.52c-.238-.352-.676-.63-1.478-.63-.764 0-1.221.244-1.474.612-.163.211-.245.508-.245.887 0 .423.101.735.275.954.253.345.739.553 1.474.553.754 0 1.203-.226 1.426-.586a1.15 1.15 0 00.204-.542zm3.322 1.087v-.427h-2.265v-.831h2.176v-.423h-2.176v-.81h2.239v-.423h-2.692v2.914h2.718zm-33.951 2.895l.555 1.71h1.797L75.51 62.97l.555 1.709-1.453-1.056-1.454 1.056.555-1.709-1.453-1.056h1.797l.555-1.709zm6.409.001l.567 1.708h1.833l-1.483 1.056.567 1.71-1.484-1.057-1.483 1.056.567-1.709-1.484-1.056h1.834l.566-1.709zm6.359 0l.567 1.708h1.833l-1.483 1.056.567 1.71-1.484-1.057-1.483 1.056.567-1.709-1.484-1.056h1.834l.566-1.709zm6.36 0l.566 1.708h1.833l-1.483 1.056.567 1.71-1.484-1.057-1.483 1.056.567-1.709-1.483-1.056h1.833l.566-1.709zm6.409 0l.555 1.708h1.797l-1.454 1.056.555 1.71-1.453-1.057-1.454 1.056.556-1.709-1.454-1.056h1.797l.555-1.709zm-22.423-28.83l.42 1.292h1.358l-1.099.799.42 1.292-1.099-.799-1.099.799.42-1.292-1.1-.799h1.36l.419-1.292zm4.846-.002l.429 1.292h1.386l-1.122.799.429 1.292-1.122-.799-1.121.799.428-1.292-1.121-.799h1.386l.428-1.292zm4.808 0l.428 1.292h1.387l-1.122.799.428 1.292-1.12-.799-1.122.799.428-1.292-1.121-.799h1.386l.428-1.292zm4.809 0l.428 1.292h1.386l-1.121.799.428 1.292-1.121-.799-1.122.799.429-1.292-1.122-.799h1.386l.429-1.292zm4.845 0l.42 1.292h1.358l-1.099.799.42 1.292-1.099-.799-1.099.799.42-1.292-1.1-.799h1.36l.42-1.292z" fill="#394149"/><path fill-rule="evenodd" clip-rule="evenodd" d="M58.376 54.63c-1.852-11.59 3.555-23.058 14.379-27.983l.1.22c-10.716 4.875-16.078 16.23-14.24 27.725C60.647 67.31 70.907 74.937 83.47 75.304l-.007.242c-12.661-.371-23.033-8.067-25.087-20.916z" fill="#394149"/><path d="M70.408 29.605c-2 .046-4.342 1.174-5.723 2.812 1.108 1.029 2.89.649 4.173.438 1.83-.3 3.777-.882 5.505-1.705-.71-1.512-2.624-1.575-3.955-1.545z" fill="#394149"/><path d="M68.835 27.138a35.974 35.974 0 01-4.134 5.295c-1.285-1.207-.51-3.215.015-4.464.95-2.263 3.23-4.215 5.612-5.213.654 1.488-.766 3.249-1.493 4.382zM64.62 34.78c-1.874.666-3.483 2.54-4.291 4.422 1.347.627 2.878-.278 3.998-.88 1.538-.827 3.107-1.968 4.341-3.288-1.115-1.177-2.809-.694-4.049-.253z" fill="#394149"/><path d="M62.349 32.937a28.736 28.736 0 01-2 6.275c-1.576-.743-1.516-2.872-1.448-4.227.115-2.312 1.408-4.948 3.21-6.624 1.102 1.182.5 3.235.238 4.576zm-1.333 8.525c-1.561 1.232-2.507 3.513-2.726 5.55 1.476.17 2.656-1.173 3.534-2.095 1.196-1.255 2.328-2.83 3.046-4.476-1.407-.768-2.838.22-3.855 1.021z" fill="#394149"/><path d="M58.312 40.423a26.127 26.127 0 010 6.593c-1.717-.211-2.286-2.273-2.623-3.566-.58-2.233-.191-5.116.94-7.286 1.414.782 1.505 2.9 1.683 4.26zm1.478 8.333c-1.234 1.81-1.669 4.644-1.113 6.923 1.632-.386 2.44-2.234 3.09-3.539.864-1.734 1.593-3.758 1.855-5.743-1.77-.368-3.018 1.167-3.831 2.359z" fill="#394149"/><path d="M56.549 48.573a33.087 33.087 0 012.152 7.1c-1.871.403-3.219-1.563-4.001-2.866-1.394-2.32-1.8-5.536-1.289-8.31 1.713.343 2.551 2.72 3.138 4.076zm4.106 8.054c-.663 2.195-.203 5.178 1.14 7.241 1.475-.96 1.68-3.074 1.889-4.59.275-2 .405-4.217.063-6.291-1.887.24-2.65 2.174-3.092 3.64z" fill="#394149"/><path d="M57.375 57.567a38.876 38.876 0 014.443 6.287c-1.709 1.067-3.713-.39-4.929-1.421-2.157-1.83-3.557-4.938-3.889-7.868 1.795-.241 3.377 1.855 4.375 3.002zm6.759 6.53c.142 2.554 1.805 5.235 4.02 6.76 1.07-1.464.399-3.707.034-5.273-.49-2.108-1.17-4.304-2.18-6.252-1.762.931-1.968 3.082-1.874 4.765z" fill="#394149"/><path d="M61.156 66.254a61.486 61.486 0 017.015 4.58c-1.332 1.755-3.994 1.055-5.645.491-2.908-.993-5.5-3.612-6.855-6.522 1.717-.884 4.068.664 5.485 1.451zm9.811 4.083c1.44 2.628 4.721 4.343 7.811 4.755.333-1.91-1.734-3.802-2.86-5.04-1.605-1.76-3.276-3.589-5.15-5.112-1.403 1.63-.66 3.829.199 5.397z" fill="#394149"/><path d="M68.91 73.668c3.274.34 6.602.83 9.873 1.395-.312 2.41-4.137 2.8-5.874 2.942-3.56.291-7.52-1.14-10.279-3.55 1.37-1.611 4.537-.968 6.28-.787zm6.305-49.044c-2.198.627-4.77 1.816-6.04 4.012 2.306-.252 4.573-1.072 6.79-1.698 2.483-.7 5.098-1.224 7.502-2.191-2.633-1.053-5.737-.84-8.252-.123z" fill="#394149"/><path fill-rule="evenodd" clip-rule="evenodd" d="M117.728 54.592c1.837-11.495-3.525-22.85-14.24-27.725l.1-.22c10.824 4.925 16.231 16.392 14.378 27.983-2.053 12.849-12.425 20.545-25.086 20.916l-.007-.242c12.563-.367 22.822-7.994 24.855-20.712z" fill="#394149"/><path d="M105.935 29.605c2 .046 4.341 1.174 5.723 2.812-1.108 1.029-2.891.649-4.173.438-1.831-.3-3.778-.882-5.505-1.705.71-1.512 2.623-1.575 3.955-1.545z" fill="#394149"/><path d="M107.508 27.138a36.025 36.025 0 004.133 5.295c1.286-1.207.51-3.215-.015-4.464-.95-2.263-3.229-4.215-5.612-5.213-.654 1.488.767 3.249 1.494 4.382zm4.216 7.642c1.873.666 3.482 2.54 4.29 4.422-1.347.627-2.878-.278-3.998-.88-1.538-.827-3.107-1.968-4.341-3.288 1.115-1.177 2.809-.694 4.049-.253z" fill="#394149"/><path d="M113.994 32.937a28.724 28.724 0 002 6.275c1.576-.743 1.516-2.872 1.448-4.227-.115-2.312-1.408-4.948-3.209-6.624-1.103 1.182-.5 3.235-.239 4.576zm1.333 8.525c1.561 1.232 2.507 3.513 2.726 5.55-1.476.17-2.656-1.173-3.534-2.095-1.196-1.255-2.328-2.83-3.046-4.476 1.407-.768 2.838.22 3.854 1.021z" fill="#394149"/><path d="M118.032 40.423a26.113 26.113 0 00-.001 6.593c1.717-.211 2.287-2.273 2.623-3.566.581-2.233.191-5.116-.94-7.286-1.414.782-1.505 2.9-1.682 4.26zm-1.48 8.333c1.235 1.81 1.669 4.644 1.114 6.923-1.632-.386-2.441-2.234-3.091-3.539-.863-1.734-1.593-3.758-1.854-5.743 1.77-.368 3.018 1.167 3.831 2.359z" fill="#394149"/><path d="M119.794 48.573a33.074 33.074 0 00-2.152 7.1c1.871.403 3.218-1.563 4.001-2.866 1.393-2.32 1.799-5.536 1.289-8.31-1.713.343-2.552 2.72-3.138 4.076zm-4.106 8.054c.663 2.195.203 5.178-1.14 7.241-1.475-.96-1.68-3.074-1.889-4.59-.275-2-.405-4.217-.063-6.291 1.887.24 2.649 2.174 3.092 3.64z" fill="#394149"/><path d="M118.967 57.567a38.947 38.947 0 00-4.442 6.287c1.708 1.067 3.713-.39 4.929-1.421 2.156-1.83 3.557-4.938 3.889-7.868-1.795-.241-3.377 1.855-4.376 3.002zm-6.759 6.53c-.142 2.554-1.805 5.235-4.019 6.76-1.07-1.464-.399-3.707-.035-5.273.491-2.108 1.171-4.304 2.181-6.252 1.762.931 1.967 3.082 1.873 4.765z" fill="#394149"/><path d="M115.187 66.254a61.472 61.472 0 00-7.015 4.58c1.332 1.755 3.994 1.055 5.644.491 2.909-.993 5.502-3.612 6.856-6.522-1.717-.884-4.068.664-5.485 1.451zm-9.811 4.083c-1.44 2.628-4.721 4.343-7.811 4.755-.333-1.91 1.734-3.802 2.861-5.04 1.603-1.76 3.274-3.589 5.148-5.112 1.404 1.63.661 3.829-.198 5.397z" fill="#394149"/><path d="M107.432 73.668c-3.273.34-6.601.83-9.873 1.395.313 2.41 4.138 2.8 5.874 2.942 3.561.291 7.522-1.14 10.279-3.55-1.369-1.611-4.536-.968-6.28-.787zm-6.304-49.044c2.197.627 4.77 1.816 6.04 4.012-2.306-.252-4.573-1.072-6.79-1.698-2.483-.7-5.098-1.224-7.502-2.191 2.633-1.053 5.737-.84 8.252-.123zM89.6 23.488L88.473 21l-1.106 2.442-2.573-1.596 1.653 3.475h4.112l1.593-3.475-2.552 1.642zm.932 2.372h-4.118v.608h4.118v-.607zm-1.765 47.012l.664 2.042h2.147l-1.737 1.262.664 2.042-1.738-1.262-1.737 1.262.664-2.042-1.737-1.262h2.147l.663-2.042z" fill="#394149"/></svg>