<svg width="177" height="100" fill="none" xmlns="http://www.w3.org/2000/svg"><path d="M68.964 75.824H65.43a1.363 1.363 0 01-.23.737c-.419.61-1.372.877-2.706.877-1.144 0-2.25-.28-2.745-1.017-.242-.343-.356-.813-.356-1.5 0-.635.089-1.143.317-1.487.445-.698 1.424-1.042 2.771-1.042 1.487 0 2.3.394 2.669.928a1.5 1.5 0 01.254.737h3.533c-.012-.317-.076-.902-.28-1.423-.597-1.487-2.223-2.885-6.138-2.885-2.872 0-4.702.762-5.719 2.033-.635.776-.953 1.83-.953 3.101 0 1.398.343 2.491 1.017 3.28.978 1.181 2.796 1.88 5.592 1.88 3.495 0 5.337-.953 6.138-2.669.254-.495.33-1.194.369-1.55zm10.913 4.066v-2.655h-6.075v-7.32h-3.444v9.976h9.52zm11.863 0v-2.478h-7.154v-1.296h6.863V73.69h-6.863v-1.284h7.066v-2.49H81.23v9.976h10.51z" fill="#394149"/><path fill-rule="evenodd" clip-rule="evenodd" d="M96.825 78.048h5.389l.877 1.843h3.673l-5.033-9.977h-4.105l-5.325 9.977h3.596l.928-1.843zm4.309-2.237h-3.19l1.258-2.402.381-.915.356.902 1.195 2.415zm18.402-2.859c0-.903-.216-1.551-.674-2.021-.597-.636-1.627-1.017-3.202-1.017h-7.944v9.977h3.394v-3.52h3.088l2.478 3.52h3.788l-3.012-4.067c.673-.102 1.22-.508 1.575-.992.318-.444.509-1.105.509-1.88zm-3.305.317c0 .165-.025.369-.114.521-.127.255-.457.356-1.004.356h-3.991V72.33h3.927c.534 0 .89.089 1.068.42.089.126.114.33.114.52z" fill="#394149"/><path d="M100.682 24.997c.089-.152.114-.356.114-.521 0-.19-.025-.394-.114-.521-.178-.33-.534-.42-1.068-.42h-3.927v1.818h3.99c.547 0 .878-.102 1.005-.356zm10.05 2.021h3.19l-1.195-2.415-.356-.902-.381.915-1.258 2.402z" fill="#394149"/><path fill-rule="evenodd" clip-rule="evenodd" d="M58.035 17.239A8.036 8.036 0 0050 25.274V75.56a8.035 8.035 0 008.035 8.035h59.93A8.035 8.035 0 00126 75.56V25.274a8.035 8.035 0 00-8.035-8.035h-59.93zm20.646 31.608l-27.007-9.134v6.523l25.97 4.077c-.38.832-.456 1.706-.215 2.563.205.724.63 1.418 1.252 2.048l-27.007 9.134v1.577h12.52l16.136-9.452c.642.377 1.365.7 2.148.966l-8.364 8.486h7.262l3.604-7.88a17.51 17.51 0 005.37 0l3.605 7.88h7.262l-10.261-10.41c-.5.169-1.035.298-1.587.385a11.08 11.08 0 01-2.134.123c-1.3-.05-2.544-.325-3.576-.789-1.033-.464-1.808-1.097-2.226-1.819-.418-.722-.462-1.5-.125-2.237.337-.737 1.04-1.398 2.018-1.9.978-.504 2.19-.825 3.48-.925 1.29-.1 2.603.028 3.77.365 1.167.337 2.138.87 2.789 1.53l30.961-10.471v-4.289h-8.174l-21.151 12.39a11.868 11.868 0 00-2.446-1.062c-.702-.22-1.442-.39-2.205-.51l4.948-10.818h-7.633v10.61a17.697 17.697 0 00-2.685.208l-4.948-10.818H71.22l11.26 11.425c-.294.099-.58.207-.857.323-1.204.506-2.205 1.155-2.941 1.901zm8.984 3.039l36.661 12.399V57.64l-36.66-5.754zM51.674 67.309h72.652v8.25a6.361 6.361 0 01-6.361 6.362h-59.93a6.361 6.361 0 01-6.361-6.361v-8.25zm17.829-46.188v6.126c0 2.694-2.44 3.99-6.139 3.99-3.456 0-5.935-1.283-5.935-4.308V21.12h3.444v5.808c0 1.08.928 1.754 2.631 1.754 1.627 0 2.593-.7 2.593-1.741V21.12h3.406zm11.47 7.32v2.657h-9.518V21.12h3.444v7.32h6.075zm10.237-4.817v-2.503H79.3v2.503h4.207v7.474h3.482v-7.474h4.22zm12.217-1.487c.457.47.673 1.119.673 2.021 0 .775-.19 1.436-.508 1.881-.356.483-.902.89-1.576.991l3.012 4.067h-3.787l-2.478-3.52h-3.089v3.52h-3.393v-9.976h7.943c1.576 0 2.606.381 3.203 1.016zm6.186 7.118h5.389l.877 1.843h3.673l-5.033-9.977h-4.105l-5.325 9.977h3.597l.927-1.843z" fill="#394149"/></svg>