<svg xmlns="http://www.w3.org/2000/svg" width="189" height="56.3"><path fill="#FFF" d="M-.016.126H189v56.175H-.016z"/><path fill="none" stroke="#010101" stroke-width=".406" stroke-linecap="round" stroke-linejoin="round" stroke-miterlimit="10" d="M1.203 28.417h186.984"/><path fill="none" stroke="#010101" stroke-width=".406" stroke-miterlimit="10" d="M188.187 26.792v3.25m-186.984 0v-3.25"/><path fill="none" stroke="#404040" stroke-width="1.219" stroke-linecap="round" stroke-linejoin="round" stroke-miterlimit="10" d="M131.077 28.417s-1.627-10.162 2.845-10.568c1.956-.178 2.979 1.824 3.511 4.129"/><path fill="#404040" d="M137.822 26.513l1.311-4.682-3.402.293z"/><path fill="none" stroke="#404040" stroke-width="1.219" stroke-miterlimit="10" d="M137.822 26.513l1.311-4.682-3.402.293z"/><path fill="none" stroke="#404040" stroke-width=".569" stroke-linecap="round" stroke-linejoin="round" stroke-miterlimit="10" d="M50.186 28.417S46.168 17.733 26.61 17.849c-11.539.068-17.246 3.734-19.983 6.73"/><path fill="#404040" d="M4.778 27.567l2.968-2.295-2.241-1.386z"/><path fill="none" stroke="#404040" stroke-width=".569" stroke-miterlimit="10" d="M4.778 27.567l2.968-2.295-2.241-1.386z"/><path fill="none" stroke="#404040" stroke-width=".813" stroke-linecap="round" stroke-linejoin="round" stroke-miterlimit="10" d="M4.252 28.417s15.854 11.38 43.494 10.974c23.289-.342 33.305-4.146 41.717-8.497"/><path fill="#404040" d="M92.902 29.05l-4.131.553 1.383 2.58z"/><path fill="none" stroke="#404040" stroke-width=".813" stroke-miterlimit="10" d="M92.902 29.05l-4.131.553 1.383 2.58z"/><path fill="none" stroke="#404040" stroke-width=".569" stroke-linecap="round" stroke-linejoin="round" stroke-miterlimit="10" d="M55.47 28.417s-4.019-10.684-23.575-10.568c-11.541.068-17.246 3.734-19.984 6.73"/><path fill="#404040" d="M10.063 27.567l2.966-2.295-2.24-1.386z"/><path fill="none" stroke="#404040" stroke-width=".569" stroke-miterlimit="10" d="M10.063 27.567l2.966-2.295-2.24-1.386z"/><path fill="none" stroke="#404040" stroke-width=".569" stroke-linecap="round" stroke-linejoin="round" stroke-miterlimit="10" d="M61.811 28.417s-4.018-10.684-23.576-10.568c-11.539.068-17.244 3.734-19.983 6.73"/><path fill="#404040" d="M16.404 27.567l2.967-2.295-2.24-1.386z"/><path fill="none" stroke="#404040" stroke-width=".569" stroke-miterlimit="10" d="M16.404 27.567l2.967-2.295-2.24-1.386z"/><path fill="none" stroke="#404040" stroke-width=".569" stroke-linecap="round" stroke-linejoin="round" stroke-miterlimit="10" d="M68.152 28.417s-4.019-10.684-23.576-10.568c-11.54.068-17.246 3.734-19.984 6.73"/><path fill="#404040" d="M22.744 27.567l2.968-2.295-2.239-1.386z"/><path fill="none" stroke="#404040" stroke-width=".569" stroke-miterlimit="10" d="M22.744 27.567l2.968-2.295-2.239-1.386z"/><path fill="none" stroke="#404040" stroke-width=".569" stroke-linecap="round" stroke-linejoin="round" stroke-miterlimit="10" d="M74.492 28.417s-4.018-10.684-23.576-10.568c-11.539.068-17.244 3.734-19.982 6.73"/><path fill="#404040" d="M29.086 27.567l2.967-2.295-2.24-1.386z"/><path fill="none" stroke="#404040" stroke-width=".569" stroke-miterlimit="10" d="M29.086 27.567l2.967-2.295-2.24-1.386z"/><path fill="none" stroke="#404040" stroke-width=".569" stroke-linecap="round" stroke-linejoin="round" stroke-miterlimit="10" d="M80.834 28.417s-4.018-10.684-23.575-10.568c-11.54.068-17.246 3.734-19.984 6.73"/><path fill="#404040" d="M35.428 27.567l2.967-2.295-2.242-1.386z"/><path fill="none" stroke="#404040" stroke-width=".569" stroke-miterlimit="10" d="M35.428 27.567l2.967-2.295-2.242-1.386z"/><path fill="none" stroke="#404040" stroke-width=".569" stroke-linecap="round" stroke-linejoin="round" stroke-miterlimit="10" d="M87.175 28.417S83.157 17.733 63.6 17.849c-11.54.068-17.246 3.734-19.984 6.73"/><path fill="#404040" d="M41.769 27.567l2.967-2.295-2.242-1.386z"/><path fill="none" stroke="#404040" stroke-width=".569" stroke-miterlimit="10" d="M41.769 27.567l2.967-2.295-2.242-1.386z"/><path fill="none" stroke="#404040" stroke-width=".813" stroke-linecap="round" stroke-linejoin="round" stroke-miterlimit="10" d="M9.537 28.417s15.853 11.38 43.494 10.974c23.289-.342 33.304-4.146 41.715-8.497"/><path fill="#404040" d="M98.188 29.05l-4.131.553 1.381 2.58z"/><path fill="none" stroke="#404040" stroke-width=".813" stroke-miterlimit="10" d="M98.188 29.05l-4.131.553 1.381 2.58z"/><path fill="none" stroke="#404040" stroke-width=".813" stroke-linecap="round" stroke-linejoin="round" stroke-miterlimit="10" d="M15.879 28.417s15.852 11.38 43.492 10.974c23.291-.342 33.305-4.146 41.718-8.497"/><path fill="#404040" d="M104.53 29.05l-4.131.553 1.381 2.58z"/><path fill="none" stroke="#404040" stroke-width=".813" stroke-miterlimit="10" d="M104.53 29.05l-4.131.553 1.381 2.58z"/><path fill="none" stroke="#404040" stroke-width=".813" stroke-linecap="round" stroke-linejoin="round" stroke-miterlimit="10" d="M22.22 28.417s15.853 11.38 43.493 10.974c23.29-.342 33.306-4.146 41.718-8.497"/><path fill="#404040" d="M110.871 29.05l-4.131.553 1.382 2.58z"/><path fill="none" stroke="#404040" stroke-width=".813" stroke-miterlimit="10" d="M110.871 29.05l-4.131.553 1.382 2.58z"/><path fill="none" stroke="#404040" stroke-width=".813" stroke-linecap="round" stroke-linejoin="round" stroke-miterlimit="10" d="M28.561 28.417s15.853 11.38 43.493 10.974c23.291-.342 33.306-4.146 41.717-8.497"/><path fill="#404040" d="M117.212 29.05l-4.131.553 1.382 2.58z"/><path fill="none" stroke="#404040" stroke-width=".813" stroke-miterlimit="10" d="M117.212 29.05l-4.131.553 1.382 2.58z"/><path fill="none" stroke="#404040" stroke-width=".813" stroke-linecap="round" stroke-linejoin="round" stroke-miterlimit="10" d="M34.902 28.417s15.852 11.38 43.492 10.974c23.292-.342 33.306-4.146 41.717-8.497"/><path fill="#404040" d="M123.552 29.05l-4.129.553 1.381 2.58z"/><path fill="none" stroke="#404040" stroke-width=".813" stroke-miterlimit="10" d="M123.552 29.05l-4.129.553 1.381 2.58z"/><path fill="none" stroke="#404040" stroke-width=".813" stroke-linecap="round" stroke-linejoin="round" stroke-miterlimit="10" d="M41.243 28.417s15.853 11.38 43.493 10.974c23.29-.342 33.306-4.146 41.718-8.497"/><path fill="#404040" d="M129.894 29.05l-4.131.553 1.383 2.58z"/><path fill="none" stroke="#404040" stroke-width=".813" stroke-miterlimit="10" d="M129.894 29.05l-4.131.553 1.383 2.58z"/><path fill="none" stroke="#404040" stroke-width="1.219" stroke-linecap="round" stroke-linejoin="round" stroke-miterlimit="10" d="M124.735 28.417s-.163-13.414 9.593-13.82c5.206-.217 7.749 3.732 8.989 7.465"/><path fill="#404040" d="M144.144 26.538l.853-4.787-3.359.619z"/><path fill="none" stroke="#404040" stroke-width="1.219" stroke-miterlimit="10" d="M144.144 26.538l.853-4.787-3.359.619z"/><path fill="none" stroke="#404040" stroke-width="1.219" stroke-linecap="round" stroke-linejoin="round" stroke-miterlimit="10" d="M118.394 28.417s3.544-17.133 15.935-16.666c7.354.277 12.136 6.096 14.81 10.783"/><path fill="#404040" d="M151.018 26.677l-.328-4.852-3.109 1.412z"/><path fill="none" stroke="#404040" stroke-width="1.219" stroke-miterlimit="10" d="M151.018 26.677l-.328-4.85-3.109 1.41z"/><path fill="none" stroke="#404040" stroke-width="1.219" stroke-linecap="round" stroke-linejoin="round" stroke-miterlimit="10" d="M112.053 28.417s5.669-19.24 22.275-18.699c10.456.342 17.253 7.668 20.854 13.047"/><path fill="#404040" d="M157.386 26.745l-.711-4.808-2.988 1.652z"/><path fill="none" stroke="#404040" stroke-width="1.219" stroke-miterlimit="10" d="M157.386 26.745l-.711-4.808-2.988 1.652z"/><path fill="none" stroke="#404040" stroke-width="1.219" stroke-linecap="round" stroke-linejoin="round" stroke-miterlimit="10" d="M105.712 28.417S111.7 7.972 133.108 7.28c14.396-.467 23.952 9.252 28.667 15.668"/><path fill="#404040" d="M164.203 26.8l-.983-4.762-2.889 1.82z"/><path fill="none" stroke="#404040" stroke-width="1.219" stroke-miterlimit="10" d="M164.203 26.802l-.983-4.764-2.889 1.82z"/><path fill="none" stroke="#404040" stroke-width="1.219" stroke-linecap="round" stroke-linejoin="round" stroke-miterlimit="10" d="M99.37 28.417s9.41-24.871 34.611-24.059c17.487.564 29.465 11.928 35.16 18.834"/><path fill="#404040" d="M171.82 26.872l-1.299-4.685-2.76 2.009z"/><path fill="none" stroke="#404040" stroke-width="1.219" stroke-miterlimit="10" d="M171.82 26.872l-1.299-4.685-2.76 2.009z"/><path fill="none" stroke="#404040" stroke-width="1.219" stroke-linecap="round" stroke-linejoin="round" stroke-miterlimit="10" d="M92.866 28.417S105.634.429 133.68 1.649c20.244.879 35.955 14.436 43.13 21.908"/><path fill="#404040" d="M179.813 26.981l-1.718-4.548-2.567 2.252z"/><path fill="none" stroke="#404040" stroke-width="1.219" stroke-miterlimit="10" d="M179.813 26.981l-1.718-4.548-2.567 2.252z"/></svg>