<svg width="177" height="100" fill="none" xmlns="http://www.w3.org/2000/svg"><path d="M24.835 68.813l-4.175-7.232 6.127-10.584 3.894 6.745 22.986-.012-6.522 11.183-22.31-.1z" fill="#FFAD64"/><path d="M57.771 50.548l-4.175 7.232-12.23-.014 3.894-6.745-11.503-19.9 12.946.057 11.068 19.37z" fill="#ADD4D3"/><path d="M25.479 31.083h8.35l6.103 10.598h-7.788L20.66 61.594l-6.424-11.24L25.48 31.082z" fill="#FB8351"/><path fill-rule="evenodd" clip-rule="evenodd" d="M34.847 29.408l-.025-.043h-10.33l-12.238 20.98 8.4 14.698.011-.017 3.176 5.5 24.288.11 8.53-14.626H56.6l3.151-5.457-12.05-21.088-12.855-.057zM42.838 43.4h.065L36.83 32.852l8.874.04L55.79 50.543l-3.157 5.468-8.274.005 2.885-4.996-4.406-7.622zM32.743 32.8l4.141 7.163h-5.733l-9.815 17.021-.67 1.157-4.445-7.779L26.465 32.8h6.278zm-3.98 18.183l4.373-7.584h5.734l4.407 7.623-2.886 4.997-8.718.005-2.91-5.041zm-6.116 10.605l1.664-2.885 2.474-4.274 2.905 5.031 8.717-.005-.014.025 12.256.014-4.489 7.697-20.33-.091-3.183-5.512z" fill="#333237"/><path d="M69.757 64.659v-8.042h-2.972v-.903h7.083v.903h-2.972v8.042h-1.14zm7.276.139c-1.176 0-2.056-.283-2.64-.847-.583-.565-.874-1.436-.874-2.612 0-1.055.25-1.884.75-2.486.509-.61 1.31-.916 2.402-.916.649 0 1.181.12 1.598.36.426.232.74.556.944.973.213.407.32.87.32 1.389v1.236h-4.875c.037.5.143.893.319 1.18.185.288.458.496.82.626.37.12.856.18 1.458.18.676 0 1.296-.116 1.86-.347v.889a4.63 4.63 0 01-.971.278 6.128 6.128 0 01-1.111.097zm-2.375-3.722h3.86v-.542c0-.537-.143-.95-.43-1.236-.278-.297-.74-.445-1.389-.445-.787 0-1.324.185-1.61.556-.288.37-.431.926-.431 1.667zm9.655 3.722c-1.148 0-2-.297-2.555-.89-.556-.6-.834-1.448-.834-2.54 0-1.158.315-2.02.945-2.584.63-.565 1.477-.847 2.541-.847.436 0 .797.032 1.084.097.287.055.565.148.833.278v.902c-.5-.24-1.07-.36-1.708-.36-.815 0-1.445.194-1.89.583-.444.38-.666 1.023-.666 1.93 0 .87.195 1.51.584 1.917.388.398 1.032.597 1.93.597.639 0 1.227-.12 1.764-.361v.917c-.287.12-.597.208-.93.264-.325.064-.69.097-1.098.097zm3.305-.139v-9.361h1.139v3.486a3.87 3.87 0 011.069-.611c.417-.158.898-.236 1.444-.236.797 0 1.394.194 1.792.583.398.389.597 1 .597 1.833v4.306H92.52v-4.264c0-.574-.13-.972-.388-1.195-.25-.23-.667-.347-1.25-.347-.37 0-.755.084-1.153.25a2.886 2.886 0 00-.972.625v4.93h-1.14z" fill="#333237"/><path d="M98.202 64.798c-.926 0-1.667-.204-2.222-.611-.556-.408-.834-.954-.834-1.64 0-.629.195-1.17.584-1.624.388-.454.92-.857 1.597-1.209a12.07 12.07 0 01-.917-1.013c-.25-.315-.375-.695-.375-1.14 0-.555.19-1.023.57-1.402.388-.389.935-.583 1.638-.583.686 0 1.218.18 1.598.541.379.361.569.843.569 1.445 0 .5-.134.921-.403 1.264-.268.342-.653.69-1.153 1.041l2.306 2.348c.157-.343.236-.778.236-1.306v-.194h.903v.194c0 .361-.042.713-.125 1.056a2.98 2.98 0 01-.361.888l1.25 1.264-.695.625-1.111-1.097c-.324.398-.745.69-1.264.875-.518.185-1.115.278-1.791.278zm-.056-5.486c.435-.269.764-.523.986-.764.222-.25.334-.565.334-.945 0-.352-.098-.63-.292-.833-.185-.213-.495-.32-.93-.32-.445 0-.77.112-.973.334a1.2 1.2 0 00-.291.82c0 .296.101.569.305.819.213.25.5.546.861.889zm.056 4.666c.537 0 .995-.078 1.375-.236a2.58 2.58 0 00.986-.736l-2.542-2.597c-.602.278-1.05.579-1.347.903-.287.315-.43.717-.43 1.208 0 .481.184.847.555 1.097.37.241.838.361 1.403.361zM67.233 49.222V36.837h3.616v9.616h5.577v2.769h-9.193zm15.009.192c-1.82 0-3.167-.404-4.039-1.211-.859-.808-1.288-1.988-1.288-3.539 0-1.538.436-2.711 1.308-3.52.871-.82 2.211-1.23 4.019-1.23 1.82 0 3.167.41 4.038 1.23.885.809 1.327 1.982 1.327 3.52 0 1.551-.436 2.73-1.307 3.539-.872.807-2.225 1.211-4.058 1.211zm0-2.635c.59 0 1.013-.166 1.27-.5.268-.333.403-.871.403-1.615 0-.73-.135-1.263-.404-1.596-.256-.346-.68-.52-1.27-.52-.576 0-.993.174-1.25.52-.255.333-.384.865-.384 1.596 0 .744.129 1.282.385 1.615.256.334.673.5 1.25.5zm10.72 5.827c-.449 0-.936-.019-1.461-.057a13.471 13.471 0 01-1.5-.154 7.746 7.746 0 01-1.154-.27v-2.307a8.14 8.14 0 001.192.288 17.032 17.032 0 002.712.231c.68 0 1.211-.038 1.596-.115.397-.064.596-.186.596-.366 0-.153-.064-.256-.192-.307-.129-.039-.372-.058-.731-.058h-2.404c-.936 0-1.66-.147-2.173-.442-.5-.308-.75-.763-.75-1.366 0-.846.468-1.435 1.404-1.769-.526-.27-.91-.609-1.154-1.02-.244-.41-.365-.929-.365-1.557 0-1.18.397-2.045 1.192-2.596.808-.551 1.968-.827 3.48-.827.321 0 .68.026 1.078.077.397.038.685.077.865.115h3.577l-.077 2.193H97.48c.231.295.347.654.347 1.077 0 .936-.276 1.68-.827 2.23-.539.539-1.391.808-2.558.808-.167 0-.346-.006-.539-.02a9.871 9.871 0 00-.538-.057 2.819 2.819 0 00-.73.154c-.206.077-.308.205-.308.385 0 .128.057.218.173.269.115.038.275.058.48.058h2.097c.935 0 1.673.218 2.211.653.539.436.808 1.077.808 1.924 0 .897-.417 1.59-1.25 2.076-.834.5-2.128.75-3.885.75zm.308-8.173c.564 0 .955-.096 1.173-.288.218-.192.327-.513.327-.962 0-.448-.11-.775-.327-.98-.218-.206-.61-.308-1.173-.308-.526 0-.91.102-1.154.308-.23.192-.346.519-.346.98 0 .436.109.757.327.962.23.192.622.288 1.173.288zm11.396 4.981c-1.821 0-3.167-.404-4.039-1.211-.859-.808-1.288-1.988-1.288-3.539 0-1.538.435-2.711 1.307-3.52.872-.82 2.212-1.23 4.02-1.23 1.82 0 3.166.41 4.038 1.23.885.809 1.327 1.982 1.327 3.52 0 1.551-.436 2.73-1.308 3.539-.872.807-2.224 1.211-4.057 1.211zm0-2.635c.589 0 1.012-.166 1.269-.5.269-.333.404-.871.404-1.615 0-.73-.135-1.263-.404-1.596-.257-.346-.68-.52-1.269-.52-.577 0-.994.174-1.251.52-.256.333-.384.865-.384 1.596 0 .744.128 1.282.384 1.615.257.334.674.5 1.251.5z" fill="#FB8351"/><path d="M111.62 38.895v-2.616h3.904v2.616h-3.904zm.288 10.327V42.74h-1.326l.307-2.635h4.635v9.116h-3.616zm5.35 4.154v-13.27h3.135l.173.731c.371-.295.775-.52 1.211-.673.449-.167.968-.25 1.558-.25 1.359 0 2.404.346 3.135 1.038.743.68 1.115 1.84 1.115 3.481 0 1.629-.391 2.866-1.173 3.712-.782.846-1.859 1.27-3.231 1.27-.91 0-1.679-.174-2.308-.52v4.48h-3.615zm5-6.596c.526 0 .93-.186 1.212-.558.282-.372.423-.949.423-1.731 0-.756-.135-1.27-.404-1.538-.257-.27-.654-.404-1.193-.404-.538 0-1.012.18-1.423.538v3.231c.206.154.411.27.616.346.205.077.461.115.769.115zm10.145 2.634c-.782 0-1.519-.058-2.211-.173-.68-.102-1.218-.237-1.616-.404v-2.596a6.91 6.91 0 001.596.48c.629.116 1.161.174 1.596.174.462 0 .808-.013 1.039-.039.244-.025.365-.134.365-.327 0-.217-.211-.384-.634-.5a28.245 28.245 0 01-1.596-.5c-.834-.294-1.456-.64-1.866-1.038-.41-.397-.615-.974-.615-1.73 0-.911.359-1.61 1.077-2.097.718-.5 1.846-.75 3.384-.75.59 0 1.199.045 1.827.135.628.09 1.122.192 1.481.307v2.539a5.432 5.432 0 00-1.269-.366 7.328 7.328 0 00-1.231-.115c-.41 0-.776.02-1.096.058-.321.038-.481.147-.481.327 0 .205.18.352.539.442.371.09.865.23 1.48.423.693.205 1.231.43 1.616.673.397.244.673.539.827.885.166.346.25.775.25 1.288 0 .923-.379 1.641-1.135 2.154-.744.5-1.853.75-3.327.75zm9.121 0c-1.064 0-1.897-.301-2.5-.904-.602-.602-.903-1.487-.903-2.654v-5.75h3.615v5.462c0 .795.404 1.192 1.211 1.192.295 0 .584-.064.866-.192.282-.128.506-.288.673-.48v-5.982h3.615v9.116h-3.384l-.096-.693c-.359.257-.802.468-1.327.635-.513.167-1.103.25-1.77.25zm8.299-.192v-9.116h3.346l.096.731a5.58 5.58 0 011.327-.654c.5-.18 1.045-.269 1.635-.269.589 0 1.051.083 1.384.25.334.167.603.41.808.73.41-.294.872-.531 1.385-.71.525-.18 1.141-.27 1.846-.27 1.064 0 1.846.282 2.346.846.5.552.75 1.398.75 2.539v5.923h-3.558v-5.5c0-.41-.083-.699-.25-.866-.166-.18-.442-.269-.827-.269-.5 0-.91.18-1.23.539.025.166.038.327.038.48v5.616h-3.346v-5.558c0-.372-.064-.64-.192-.808-.129-.18-.372-.269-.731-.269a1.45 1.45 0 00-.712.192 2.741 2.741 0 00-.615.462v5.98h-3.5zm-40.872 15.69c-.963 0-1.764-.18-2.403-.541a3.513 3.513 0 01-1.416-1.542c-.315-.666-.472-1.444-.472-2.333 0-.972.148-1.82.444-2.542.296-.722.759-1.278 1.389-1.667.63-.398 1.444-.597 2.444-.597.519 0 .986.037 1.403.111a7.48 7.48 0 011.195.306v1a6.704 6.704 0 00-1.181-.32 6.718 6.718 0 00-1.319-.125c-.806 0-1.445.153-1.917.459-.472.305-.81.745-1.014 1.32-.204.573-.306 1.258-.306 2.055 0 1.102.26 1.953.778 2.555.528.593 1.357.89 2.486.89.417 0 .838-.033 1.264-.098a5.935 5.935 0 001.209-.306v1.014a8.27 8.27 0 01-1.181.264 9.185 9.185 0 01-1.403.097zm7.26 0c-1.148 0-1.986-.291-2.514-.875-.518-.592-.777-1.444-.777-2.555 0-1.102.264-1.95.791-2.542.528-.592 1.362-.889 2.5-.889 1.139 0 1.973.297 2.5.89.528.592.792 1.439.792 2.54 0 1.112-.259 1.964-.778 2.556-.518.584-1.356.875-2.514.875zm0-.972c.787 0 1.343-.194 1.667-.583.324-.398.486-1.023.486-1.875 0-.852-.166-1.472-.5-1.861-.324-.398-.875-.598-1.653-.598-.777 0-1.333.2-1.666.598-.324.389-.486 1.009-.486 1.86 0 .853.162 1.478.486 1.876.324.389.879.583 1.666.583zm4.684.834v-.959h1.028v.959h-1.028z" fill="#333237"/></svg>