<svg xmlns="http://www.w3.org/2000/svg" viewBox="0 0 177.778 100"><path d="M88.693 55.374h-5.12V41.686h5.12zm-4.62-.5h4.12V42.186h-4.12zm11.744.5H90.8V41.686h10.482a6.288 6.288 0 014.214 1.188 4.609 4.609 0 011.479 3.817 4.863 4.863 0 01-1.089 3.375c-.917 1.052-2.443 1.594-4.535 1.613-.527.014-4.476 0-5.531 0zm-4.52-.5h4.02v-3.7h.251c.051 0 5.178.016 5.771 0 1.949-.017 3.35-.5 4.169-1.443a4.391 4.391 0 00.96-3.041 4.145 4.145 0 00-1.3-3.433 5.827 5.827 0 00-3.893-1.072H91.3zm8.923-6.27h-4.937v-3.726h4.97a2.111 2.111 0 011.9.727 2 2 0 01.282 1.153 2.123 2.123 0 01-.235 1.082 2.165 2.165 0 01-1.98.76zm-4.437-.5h4.437c.82 0 1.328-.171 1.553-.523a1.66 1.66 0 00.163-.823 1.552 1.552 0 00-.186-.858l-.006-.009c-.238-.35-.711-.513-1.491-.513h-4.47zm20.317 7.472c-4.49 0-7.17-1.115-8.191-3.408a5.935 5.935 0 01-.338-1.374l-.044-.288h5.342l.035.21a1.393 1.393 0 00.264.586c.211.255.915.683 3.251.683 2.808 0 2.808-.493 2.808-.758 0-.447-.325-.6-2.615-.844l-.435-.041c-.862-.081-1.952-.184-2.45-.227-4.2-.38-6.075-1.685-6.075-4.23 0-2.673 3.191-4.4 8.13-4.4 4.029 0 6.625 1.062 7.714 3.159a4.863 4.863 0 01.513 1.562l.035.281h-5.348l-.022-.226a.855.855 0 00-.216-.474c-.2-.268-.832-.711-2.794-.711-2.409 0-2.741.308-2.741.64 0 .443.761.6 3.2.861 1.017.083 2.652.251 3.212.319 3.521.382 5.092 1.655 5.092 4.129.001 2.075-1.444 4.551-8.327 4.551zm-7.989-4.57a4.557 4.557 0 00.257.964c.93 2.089 3.46 3.106 7.732 3.106 3.572 0 7.831-.7 7.831-4.051 0-2.193-1.39-3.279-4.649-3.632-.56-.068-2.185-.235-3.2-.319-2.6-.282-3.657-.432-3.657-1.358 0-.958 1.139-1.14 3.241-1.14 1.661 0 2.734.3 3.189.905a1.487 1.487 0 01.276.506h4.334a4.508 4.508 0 00-.41-1.111c-1-1.919-3.443-2.891-7.271-2.891-4.635 0-7.63 1.531-7.63 3.9 0 2.26 1.681 3.376 5.619 3.732.5.043 1.589.146 2.453.228l.438.041c2.127.224 3.065.364 3.065 1.341 0 1.052-1.213 1.258-3.308 1.258-1.938 0-3.162-.291-3.635-.864a1.852 1.852 0 01-.324-.615zm25.816 4.553c-5.22 0-8.1-2.111-8.1-5.945v-7.928h5.052v7.928c0 1.315 1.177 2.069 3.228 2.069 1.96 0 3.177-.787 3.177-2.052v-7.945h5v8.348c.005 3.511-3.044 5.525-8.36 5.525zm-7.6-13.373v7.428c0 4.738 4.758 5.445 7.6 5.445 2.938 0 7.865-.653 7.865-5.025v-7.848h-4v7.445c0 1.55-1.444 2.552-3.677 2.552-2.334 0-3.728-.96-3.728-2.569v-7.428zm37.145 13.188h-4.768v-6.18L156 55.374h-4.159l-2.676-6.168v6.168h-4.785V41.686h6.294l3.27 7.547 3.428-7.547h6.106zm-4.268-.5h3.768V42.186h-5.282l-3.762 8.279-3.586-8.279h-5.466v12.688h3.785V46.8l3.5 8.077h3.5l3.537-8.065zM19.054 41.936H14.5v13.188h12.584v-3.511h-8.03zm17.222-.3c-5.813 0-8.87 2.755-8.87 6.8 0 4.57 3.209 6.888 8.87 6.888 6.232 0 8.853-2.688 8.853-6.888 0-4.265-2.957-6.802-8.853-6.802zm-.017 3.427a9.432 9.432 0 011.184.069l-5.091 5.091a4.041 4.041 0 01-.344-1.732c0-2.069 1.042-3.43 4.251-3.43zm.017 6.888a9.459 9.459 0 01-1.141-.064l5.1-5.1a3.973 3.973 0 01.325 1.7c0 2.013-.96 3.462-4.284 3.462zm17.876-1.8h4.687a2.14 2.14 0 01-.42.89 4.855 4.855 0 01-3.461 1.075 4.412 4.412 0 01-3.477-1.159 3.733 3.733 0 01-.639-2.369 3.647 3.647 0 01.689-2.469c.655-.74 1.764-1.059 3.394-1.059a4.626 4.626 0 012.94.756 1.8 1.8 0 01.588.84H62.8a4.48 4.48 0 00-.387-1.579c-1.041-2.117-3.461-3.377-7.576-3.377-3.579 0-5.981 1.092-7.308 2.739a6.569 6.569 0 00-1.277 4.116A6.932 6.932 0 0047.5 52.79c1.311 1.7 3.646 2.536 6.452 2.536a8.062 8.062 0 005.241-1.478l.118 1.276h3.611v-7.812h-8.77zm19.019-8.518c-5.812 0-8.87 2.755-8.87 6.8 0 4.57 3.208 6.888 8.87 6.888 6.233 0 8.854-2.688 8.854-6.888 0-4.262-2.957-6.799-8.854-6.799zm-.016 3.427a9.607 9.607 0 011.153.066L69.237 50.2a4.057 4.057 0 01-.333-1.709c-.004-2.069 1.042-3.43 4.251-3.43zm.016 6.888A9.432 9.432 0 0172 51.88l5.117-5.118a3.952 3.952 0 01.337 1.727c.002 2.011-.954 3.46-4.283 3.46z" fill="#394149"/></svg>