<svg width="177" height="100" fill="none" xmlns="http://www.w3.org/2000/svg"><path d="M45.031 36.178c-.635-1.614-.36-3.471.226-5.032.616-1.643 1.688-3.282 3.29-4.146.08 1.731-.45 3.442-1.027 4.985-.52 1.387-1.158 2.865-2.21 4.012a31.53 31.53 0 00-.374 2.6 6.59 6.59 0 011.621-2.411c.91-.86 2.262-1.524 3.531-1.132-.372 1.403-1.22 2.748-2.223 3.692-.79.743-1.833 1.694-3.061 1.732-.05 1.27-.022 2.528.082 3.77.174-.909.545-1.764 1.081-2.401.738-.876 1.83-1.945 3.226-1.766-.076 1.42-.643 2.875-1.432 3.969-.627.869-1.454 1.976-2.629 2.262.188 1.22.45 2.42.783 3.593.003-.899.201-1.78.595-2.488.555-.998 1.42-2.242 2.817-2.34.205 1.394-.073 2.917-.633 4.128-.447.969-1.044 2.203-2.131 2.714.457 1.263.997 2.49 1.616 3.675-.217-1.02-.208-2.097.049-3.065.355-1.335 1.235-2.737 2.649-3.144.5 1.474.43 3.118.14 4.616-.239 1.233-.708 2.682-1.76 3.483a29.88 29.88 0 002.279 3.189c-.446-.994-.668-2.081-.549-3.077.173-1.45.58-3.002 2.062-3.775.84 1.45 1.035 3.077 1.107 4.684.057 1.298-.13 2.9-1.032 3.957a30.133 30.133 0 003.207 2.888c-.739-.947-1.256-2.058-1.365-3.158-.155-1.553-.08-3.262 1.299-4.402 1.178 1.231 1.882 3.044 2.227 4.619.304 1.392.623 3.04-.103 4.41a30.894 30.894 0 004.652 2.496c-1.156-.824-2.102-1.954-2.553-3.12-.591-1.53-.956-3.353.194-4.885 1.542.988 2.675 2.673 3.568 4.21.766 1.318 1.559 3.138 1.165 4.708.91.309 1.843.58 2.798.81l-.057.235a32.754 32.754 0 01-2.808-.813c-.64 1.89-2.736 2.515-4.431 2.79-2.415.394-5.29-.368-7.353-1.901 1.089-1.538 3.309-1.694 4.983-1.812l.022-.001a17.939 17.939 0 015.662.522 31.273 31.273 0 01-5.963-3.03l-.027.043c-1.007 1.634-3.03 1.697-4.617 1.594-2.155-.14-4.642-1.45-6.082-3.26 1.355-1.189 3.354-.856 4.904-.599l.008.002c1.729.287 3.619.914 5.205 1.88a7.67 7.67 0 01-.442-.377 30.412 30.412 0 01-4.257-3.67l-.045.044c-1.256 1.263-3.084.932-4.51.521-1.91-.55-3.89-2.21-4.84-4.114 1.47-.824 3.23-.145 4.597.392 1.5.59 3.089 1.532 4.31 2.734a7.114 7.114 0 01-.36-.496 30.132 30.132 0 01-3.053-4.1l-.045.029c-1.42.916-3.03.252-4.305-.4-1.729-.885-3.118-2.83-3.719-4.743 1.534-.491 3.05.473 4.228 1.237 1.288.835 2.593 2.026 3.49 3.393a6.307 6.307 0 01-.184-.413 30.036 30.036 0 01-2.184-4.714l-.03.01-.003.002c-1.292.49-2.73-.273-3.667-1.11-1.303-1.163-2.222-2.951-2.437-4.698 1.346-.175 2.615.867 3.482 1.755.998 1.023 1.894 2.231 2.445 3.574a5.877 5.877 0 01-.104-.444 30.126 30.126 0 01-1.131-4.742l-.02.002-.006.001c-1.365.228-2.627-.81-3.382-1.817-1.058-1.414-1.603-3.37-1.466-5.143 1.36.095 2.395 1.389 3.067 2.435.777 1.212 1.421 2.583 1.704 4.017a5.781 5.781 0 01-.016-.344 30.628 30.628 0 01-.214-5.036h-.003c-1.388-.05-2.414-1.339-2.944-2.482-.758-1.636-.88-3.703-.374-5.446 1.323.371 2.06 1.889 2.496 3.057.502 1.347.852 2.816.855 4.276a31.57 31.57 0 01.44-3.7zm27.337-3.023v5.85c0 2.573-2.33 3.811-5.861 3.811-3.302 0-5.668-1.226-5.668-4.114v-5.547h3.289v5.547c0 1.031.886 1.675 2.512 1.675 1.553 0 2.476-.668 2.476-1.663v-5.559h3.252zm10.954 6.991v2.536h-9.09v-9.527h3.29v6.991h5.8zm9.775-4.6v-2.39H81.725v2.39h4.017v7.136h3.325v-7.136h4.03z" fill="#394149"/><path fill-rule="evenodd" clip-rule="evenodd" d="M104.763 34.126c.437.45.644 1.068.644 1.93 0 .74-.182 1.372-.486 1.796-.34.461-.862.85-1.505.947l2.877 3.883h-3.617l-2.367-3.361H97.36v3.361h-3.24v-9.527h7.585c1.505 0 2.488.364 3.058.971zm-2.621 2.731c.085-.146.109-.34.109-.498 0-.182-.024-.376-.109-.497-.17-.316-.51-.4-1.02-.4h-3.75v1.735h3.811c.522 0 .838-.097.959-.34zm8.529 4.066h5.146l.837 1.76h3.508l-4.806-9.528h-3.92l-5.085 9.527h3.434l.886-1.76zm4.114-2.136h-3.046l1.202-2.294.364-.874.34.862 1.14 2.306zm-10.369 5.69c-2.036 0-3.107.965-3.107 2.383 0 1.6 1.124 2.412 3.107 2.412 2.183 0 3.101-.941 3.101-2.412 0-1.495-1.036-2.383-3.101-2.383zm0 3.613c-1.159 0-1.495-.477-1.495-1.213 0-.723.365-1.2 1.489-1.2 1.23 0 1.506.536 1.506 1.2 0 .707-.335 1.213-1.5 1.213z" fill="#394149"/><path d="M98.291 49.202v-2.736H95.22v.994h1.642a.744.744 0 01-.148.312c-.17.2-.623.376-1.212.376-.612 0-1.006-.159-1.218-.406-.14-.182-.223-.44-.223-.83 0-.405.082-.682.241-.864.23-.259.618-.37 1.189-.37.511 0 .865.117 1.03.264a.63.63 0 01.205.294h1.524a1.578 1.578 0 00-.135-.553c-.365-.741-1.212-1.183-2.654-1.183-1.253 0-2.094.383-2.56.96-.305.394-.447.888-.447 1.441 0 .612.165 1.136.436 1.483.459.594 1.277.888 2.26.888.864 0 1.459-.206 1.835-.517l.041.447h1.265zm-16.028-2.795c1.195.13 1.706.553 1.706 1.359 0 .977-.953 1.506-2.83 1.506-1.747 0-2.5-.494-2.789-1.141a1.99 1.99 0 01-.111-.46h1.694a.583.583 0 00.112.248c.141.17.535.27 1.206.27.865 0 1.071-.123 1.071-.352 0-.248-.212-.3-.994-.383-.312-.03-.806-.076-1.012-.094-1.495-.135-2.048-.6-2.048-1.395 0-.823.977-1.453 2.76-1.453 1.582 0 2.318.47 2.624 1.06.094.176.153.376.17.517h-1.694a.387.387 0 00-.094-.212c-.13-.17-.46-.282-1.048-.282-.83 0-1.047.1-1.047.312 0 .235.277.288 1.2.388.36.03.93.088 1.124.112z" fill="#394149"/><path fill-rule="evenodd" clip-rule="evenodd" d="M65.37 44.977c.313.247.489.665.489 1.27 0 .495-.123.866-.359 1.125-.318.364-.841.53-1.524.535-.212.006-2.024 0-2.024 0v1.295H60.37v-4.62h3.584c.635 0 1.118.13 1.418.395zm-1.17 1.63a.662.662 0 00.07-.336c0-.153-.03-.282-.082-.353-.1-.147-.288-.217-.594-.217H61.94v1.13h1.642c.33 0 .524-.077.618-.224zm7.449-1.554c.212.218.312.518.312.936 0 .359-.088.665-.236.87a1.13 1.13 0 01-.73.46l1.395 1.883h-1.753l-1.147-1.63h-1.43v1.63h-1.571v-4.62h3.677c.73 0 1.207.177 1.483.471zm-1.27 1.324a.498.498 0 00.052-.24.444.444 0 00-.053-.242c-.082-.153-.247-.194-.494-.194h-1.818v.841h1.847c.253 0 .406-.047.465-.165z" fill="#394149"/><path d="M77.762 49.202v-1.148h-3.313v-.6h3.177V46.33H74.45v-.594h3.271v-1.153h-4.824v4.619h4.866zm11.933-3.46v-1.16h-5.513v1.16h1.947v3.46h1.613v-3.46h1.953zm2.12-1.159v4.619h-1.618v-4.62h1.618zm8.855 0v4.619h-1.618v-4.62h1.618zm13.09 0v2.836c0 1.247-1.13 1.847-2.842 1.847-1.6 0-2.748-.594-2.748-1.994v-2.69h1.595v2.69c0 .5.429.812 1.218.812.753 0 1.2-.324 1.2-.806v-2.695h1.577zm6.352 3.183c0-.806-.512-1.23-1.706-1.36a40.177 40.177 0 00-1.124-.111c-.924-.1-1.201-.153-1.201-.388 0-.212.218-.312 1.048-.312.588 0 .918.112 1.047.282a.385.385 0 01.094.212h1.695a1.623 1.623 0 00-.171-.518c-.306-.588-1.041-1.059-2.624-1.059-1.783 0-2.76.63-2.76 1.453 0 .795.554 1.26 2.048 1.395l.096.008.16.015.756.071c.783.082.994.135.994.383 0 .229-.205.353-1.07.353-.671 0-1.065-.1-1.207-.271a.577.577 0 01-.111-.247h-1.695c.018.117.047.306.112.459.288.647 1.041 1.141 2.789 1.141 1.877 0 2.83-.53 2.83-1.506z" fill="#394149"/><path fill-rule="evenodd" clip-rule="evenodd" d="M78.967 50.97c-1.323 0-2.02.627-2.02 1.549 0 1.04.73 1.568 2.02 1.568 1.418 0 2.015-.612 2.015-1.568 0-.971-.673-1.549-2.015-1.549zm0 2.348c-.754 0-.972-.31-.972-.788 0-.47.237-.78.968-.78.799 0 .979.348.979.78 0 .46-.218.788-.975.788z" fill="#394149"/><path d="M71.609 53.108c0-.524-.333-.8-1.11-.884a26.05 26.05 0 00-.73-.072c-.6-.065-.78-.1-.78-.253 0-.137.141-.202.68-.202.383 0 .597.072.681.183a.253.253 0 01.062.138h1.1a1.046 1.046 0 00-.11-.337c-.199-.382-.677-.688-1.706-.688-1.158 0-1.793.41-1.793.945 0 .516.36.818 1.33.906.135.011.456.042.658.061.51.054.647.088.647.249 0 .149-.134.23-.696.23-.436 0-.692-.066-.784-.177a.376.376 0 01-.073-.16h-1.101c.011.076.03.198.073.298.187.42.676.742 1.812.742 1.22 0 1.84-.344 1.84-.98z" fill="#394149"/><path fill-rule="evenodd" clip-rule="evenodd" d="M63.973 53.192c0 .206-.057.41-.172.543-.176.214-.505.306-.93.306h-2.665v-3.002H62.8c.413 0 .677.1.822.248.13.13.188.303.188.498s-.046.355-.146.474a.577.577 0 01-.363.195.809.809 0 01.532.283c.095.11.141.279.141.455zm-1.289-1.052a.258.258 0 00.062-.176.22.22 0 00-.073-.175c-.054-.05-.153-.07-.298-.07h-1.167v.49h1.193c.13 0 .23-.019.283-.069zm-.172 1.22c.18 0 .287-.023.348-.08.038-.038.054-.096.054-.168a.24.24 0 00-.065-.18c-.057-.05-.157-.073-.325-.073h-1.316v.501h1.304z" fill="#394149"/><path d="M67.574 53.295v.746H64.41v-3.002h3.136v.75H65.42v.386h2.065v.73H65.42v.39h2.153zm7.756-2.256v.753h-1.27v2.249h-1.048v-2.249h-1.265v-.753h3.583zm9.151 0v.76h-2.038v.425h1.943v.754h-1.943v1.063h-1.029v-3.002h3.067zm5.181.753v-.753H86.08v.753h1.266v2.249h1.048v-2.249h1.27zm3.91-.753v3.002h-1.025v-1.09H91.01v1.09h-1.025v-3.002h1.025v1.094h1.537v-1.094h1.025zm3.769 3.001v-.745h-2.153v-.39h2.065v-.73h-2.065v-.386h2.126v-.75H94.18v3.002h3.162zm6.34-3.001h.99l-1.097 3.002h-1.124s-.601-1.794-.605-1.843c-.003.05-.608 1.843-.608 1.843h-1.12l-1.124-3.002h1.112s.651 1.889.651 1.935c0-.046.6-1.935.6-1.935h1.075s.604 1.889.604 1.935c0-.046.646-1.935.646-1.935z" fill="#394149"/><path fill-rule="evenodd" clip-rule="evenodd" d="M106.635 50.97c-1.323 0-2.019.627-2.019 1.549 0 1.04.73 1.568 2.019 1.568 1.419 0 2.015-.612 2.015-1.568 0-.971-.673-1.549-2.015-1.549zm0 2.348c-.753 0-.971-.31-.971-.788 0-.47.237-.78.967-.78.8 0 .979.348.979.78 0 .46-.218.788-.975.788zm5.802-1.973c.137.141.202.336.202.608 0 .233-.057.432-.153.566a.732.732 0 01-.474.298l.906 1.224h-1.139l-.746-1.06h-.929v1.06h-1.021v-3.002h2.39c.474 0 .784.115.964.306zm-.826.86a.332.332 0 00.034-.157.296.296 0 00-.034-.156c-.054-.1-.161-.127-.322-.127h-1.181v.547h1.2c.165 0 .264-.03.303-.107z" fill="#394149"/><path d="M116.111 54.04v-.798h-1.828v-2.203h-1.036v3.002h2.864z" fill="#394149"/><path fill-rule="evenodd" clip-rule="evenodd" d="M120.166 52.484c0 .467-.046.72-.183.956-.207.379-.616.6-1.339.6h-2.126v-3h2.103c.719 0 1.144.203 1.354.55.149.234.191.482.191.895zm-1.717.819c.325 0 .509-.077.62-.245.069-.103.088-.344.088-.554-.004-.192-.027-.394-.088-.486-.119-.18-.298-.245-.612-.245h-.914v1.53h.906z" fill="#394149"/><path d="M79.145 68.64H77.56s-1.034 3.023-1.034 3.096c0-.073-.966-3.096-.966-3.096h-1.72s-.96 3.023-.96 3.096c0-.073-1.04-3.096-1.04-3.096h-1.78l1.798 4.803h1.793s.966-2.87.972-2.949c.007.08.967 2.95.967 2.95h1.799l1.756-4.803zm2.168 4.803v-4.802h-1.682v4.802h1.682zm6.545-4.803v4.803h-1.64l-2.38-2.673v2.673H82.26v-4.802h1.725l2.306 2.612v-2.612h1.567zm6.554 4.803v-4.802h-1.566v2.612l-2.306-2.612h-1.726v4.802h1.579V70.77l2.38 2.673h1.64zm6.017-1.193v1.193h-5.06v-4.802h5.017v1.199h-3.402v.618h3.304v1.168h-3.304v.624h3.445z" fill="#394149"/><path fill-rule="evenodd" clip-rule="evenodd" d="M106.896 70.103c0-.435-.104-.747-.324-.973-.288-.306-.783-.49-1.542-.49h-3.824v4.803h1.634V71.75h1.487l1.193 1.694h1.823l-1.45-1.957a1.18 1.18 0 00.759-.478c.152-.214.244-.532.244-.905zm-1.591.153a.51.51 0 01-.055.25c-.061.123-.22.172-.483.172h-1.921v-.875h1.89c.257 0 .429.043.514.202a.46.46 0 01.055.25z" fill="#394149"/><path d="M74.26 60.167l-.664-2.042-.664 2.042h-2.147l1.737 1.262-.663 2.042 1.737-1.262 1.737 1.262-.663-2.042 1.737-1.262H74.26zm6.997-2.044l.677 2.043h2.19l-1.772 1.262.677 2.042-1.772-1.262-1.773 1.262.677-2.042-1.773-1.262h2.191l.678-2.043zm8.276 2.043l-.677-2.043-.677 2.043h-2.191l1.772 1.262-.677 2.042 1.773-1.262 1.773 1.262-.678-2.042 1.773-1.262h-2.191zm6.923-2.043l.677 2.043h2.191l-1.773 1.262.677 2.042-1.772-1.262-1.773 1.262.677-2.042-1.772-1.262h2.19l.678-2.043zm8.324 2.043l-.664-2.043-.664 2.043h-2.147l1.737 1.262-.663 2.042 1.737-1.262 1.737 1.262-.663-2.042 1.737-1.262h-2.147zm27.858-23.944c.635-1.614.359-3.47-.226-5.032-.616-1.643-1.688-3.282-3.29-4.146-.08 1.732.449 3.442 1.027 4.985.52 1.387 1.157 2.865 2.21 4.012.162.87.286 1.736.373 2.599a6.587 6.587 0 00-1.62-2.41c-.909-.86-2.262-1.524-3.531-1.132.372 1.404 1.219 2.749 2.223 3.692.79.743 1.833 1.695 3.061 1.732.051 1.27.022 2.529-.083 3.77-.173-.908-.544-1.764-1.081-2.4-.737-.876-1.83-1.945-3.225-1.767.076 1.42.643 2.876 1.432 3.97.626.868 1.454 1.976 2.629 2.262a29.782 29.782 0 01-.783 3.592c-.003-.898-.201-1.78-.595-2.488-.555-.998-1.42-2.242-2.817-2.34-.205 1.394.073 2.917.633 4.128.447.969 1.044 2.204 2.131 2.715a29.788 29.788 0 01-1.617 3.675c.218-1.021.209-2.098-.048-3.066-.355-1.335-1.235-2.737-2.649-3.144-.5 1.474-.431 3.118-.14 4.616.239 1.233.708 2.682 1.76 3.483a29.76 29.76 0 01-2.28 3.19c.447-.994.668-2.082.549-3.078-.173-1.45-.58-3.001-2.061-3.774-.841 1.45-1.036 3.076-1.107 4.683-.058 1.3.129 2.901 1.032 3.958a30.258 30.258 0 01-3.206 2.887c.738-.947 1.255-2.058 1.364-3.157.155-1.553.08-3.263-1.299-4.402-1.178 1.23-1.882 3.044-2.226 4.618-.305 1.392-.623 3.04.102 4.41a30.878 30.878 0 01-4.652 2.496c1.156-.823 2.102-1.954 2.553-3.12.591-1.53.956-3.353-.194-4.884-1.542.987-2.675 2.672-3.568 4.209-.766 1.318-1.559 3.138-1.165 4.708-.91.309-1.843.58-2.798.811l.057.235a32.812 32.812 0 002.808-.814c.64 1.89 2.736 2.515 4.431 2.791 2.415.393 5.291-.368 7.353-1.902-1.089-1.538-3.309-1.694-4.983-1.811l-.022-.002a17.934 17.934 0 00-5.662.523 31.309 31.309 0 005.963-3.03l.025.04c1.007 1.636 3.031 1.7 4.619 1.596 2.155-.14 4.642-1.45 6.081-3.26-1.354-1.188-3.353-.856-4.903-.598l-.008.001c-1.729.287-3.618.914-5.204 1.88a8.23 8.23 0 00.442-.377 30.414 30.414 0 004.255-3.67l.054.053c1.256 1.253 3.079.922 4.503.512 1.91-.55 3.89-2.21 4.839-4.114-1.471-.824-3.229-.145-4.596.392-1.503.59-3.092 1.534-4.314 2.738.126-.16.247-.325.361-.497a30.186 30.186 0 003.055-4.102l.039.024.01.006c1.419.913 3.027.25 4.301-.402 1.729-.885 3.119-2.83 3.719-4.742-1.534-.492-3.049.473-4.227 1.236-1.29.836-2.596 2.028-3.492 3.395.066-.135.128-.273.185-.413a30.036 30.036 0 002.184-4.716l.031.01.005.003c1.291.489 2.728-.274 3.665-1.11 1.302-1.164 2.221-2.952 2.436-4.7-1.346-.174-2.615.868-3.482 1.756-.998 1.023-1.895 2.233-2.446 3.576.041-.146.076-.295.105-.446a30.112 30.112 0 001.131-4.742l.038.005c1.36.22 2.618-.814 3.37-1.819 1.058-1.413 1.603-3.37 1.466-5.143-1.359.095-2.395 1.389-3.066 2.435-.778 1.213-1.423 2.584-1.705 4.02.009-.115.014-.23.016-.346a30.62 30.62 0 00.213-5.036c1.389-.05 2.418-1.339 2.948-2.482.757-1.636.879-3.704.374-5.446-1.323.371-2.061 1.888-2.496 3.056-.502 1.347-.852 2.816-.855 4.277a31.682 31.682 0 00-.439-3.7z" fill="#394149"/></svg>