<svg width="177" height="100" fill="none" xmlns="http://www.w3.org/2000/svg"><path d="M35.952 46.233a79.095 79.095 0 00-.055 3.255c0 1.312.018 2.406.055 3.281.036.857.109 1.54.218 2.051.128.51.301.866.52 1.067.237.2.547.3.93.3s.683-.1.902-.3c.237-.2.41-.556.52-1.067.127-.51.21-1.194.246-2.05.036-.876.055-1.97.055-3.282a79.96 79.96 0 00-.055-3.255c-.037-.875-.119-1.567-.246-2.078-.11-.51-.283-.866-.52-1.066-.219-.2-.52-.301-.902-.301-.383 0-.693.1-.93.3-.219.201-.392.557-.52 1.067-.109.51-.182 1.203-.218 2.078z" fill="#394149"/><path fill-rule="evenodd" clip-rule="evenodd" d="M36.92 29.173c-6.593.141-11.835 5.583-11.729 12.177l.13 8.102-.13 8.103c-.105 6.594 5.136 12.036 11.73 12.176l8.103.174 8.104-.174c6.593-.14 11.835-5.582 11.729-12.176l-.13-8.103.13-8.102c.106-6.594-5.136-12.036-11.73-12.177L45.025 29l-8.104.173zm8.384 30.597l-3.063 2.652-2.789-3.008a8.04 8.04 0 01-.656.082c-.2.037-.429.055-.684.055h-.492c-1.295 0-2.389-.173-3.282-.52a4.555 4.555 0 01-2.16-1.722c-.547-.82-.939-1.869-1.176-3.145-.237-1.294-.355-2.853-.355-4.676s.118-3.373.355-4.65c.237-1.294.629-2.342 1.176-3.144a4.667 4.667 0 012.16-1.778c.893-.382 1.987-.574 3.282-.574 1.294 0 2.388.192 3.281.575a4.668 4.668 0 012.16 1.777c.548.802.94 1.85 1.177 3.145.237 1.276.355 2.826.355 4.649 0 1.877-.128 3.464-.383 4.758s-.674 2.352-1.258 3.172l2.352 2.352zm8.632-13.017v-1.094c0-1.112-.11-1.868-.328-2.27-.219-.4-.574-.601-1.066-.601-.383 0-.693.1-.93.3-.219.201-.392.557-.52 1.067-.11.51-.182 1.203-.218 2.078a79.095 79.095 0 00-.055 3.255c0 1.312.018 2.406.054 3.281.037.857.11 1.54.22 2.051.127.51.3.866.519 1.067.237.2.547.3.93.3.31 0 .565-.072.765-.218.2-.164.356-.429.465-.793.11-.365.183-.848.219-1.45.055-.62.082-1.394.082-2.324h4.922v1.45c0 1.367-.182 2.488-.547 3.363-.364.875-.847 1.568-1.449 2.078a4.776 4.776 0 01-2.078.985 10.26 10.26 0 01-2.38.273c-1.421 0-2.588-.173-3.5-.52a4.245 4.245 0 01-2.133-1.722c-.51-.82-.866-1.869-1.066-3.145-.182-1.294-.274-2.853-.274-4.676 0-1.86.11-3.437.329-4.731.236-1.295.629-2.343 1.175-3.145a4.554 4.554 0 012.16-1.723c.894-.364 1.997-.547 3.31-.547 1.148 0 2.123.146 2.926.438.802.291 1.449.71 1.941 1.258.51.528.875 1.176 1.094 1.941.237.748.356 1.596.356 2.544v1.23h-4.923zm34.819-3.817l4.458 4.627 4.458-4.627h7.746l-8.337 7.932 8.337 7.93h-7.746l-4.458-4.638-4.458 4.639h-7.758l8.337-7.931-8.337-7.932h7.758zm-.43 7.932l-9.067-8.627h9.793l4.162 4.32 4.162-4.32h9.444v-.011h16.006c3.66-.038 6.758 3.023 6.708 6.695a6.467 6.467 0 01-1.073 3.622 6.657 6.657 0 01-2.037 2.009l3.413 4.382v-2.842c0-2.227 1.664-3.646 3.578-4.587 1.933-.95 4.372-1.545 6.403-2.025h.003l.023-.007c1.252-.307 2.318-.57 3.077-.852.384-.144.636-.273.78-.383l.046-.038a1.04 1.04 0 00-.311-.17c-.413-.161-1.118-.283-2.186-.284-1.141.012-2.111.105-2.773.337-.326.115-.523.245-.634.367a.567.567 0 00-.145.426l.017.712h-7.63v-.695c0-1.427.28-2.62.84-3.597.563-.982 1.383-1.699 2.383-2.213 1.962-1.008 4.665-1.259 7.679-1.259 3.086 0 5.648.356 7.462 1.273.918.465 1.664 1.083 2.177 1.887.514.806.766 1.755.766 2.835 0 1.996-1.205 3.268-2.682 4.097-1.434.805-3.239 1.262-4.738 1.628h7.16v5.922H130.25l.009.012h-8.364l-2.992-3.871h-4.495v3.87h-7.264l.013.013h-9.783l-4.16-4.33-4.162 4.33h-9.794l9.067-8.626zm18.494 8.304V42.563l-8.73 8.305 8.73 8.304zm12.427-4.256l2.992 3.87h6.598l-3.465-4.449a5.953 5.953 0 002.507-2.172c.639-.967.958-2.053.958-3.245.048-3.28-2.731-6.03-6.007-5.995h-15.314v15.862h6.196v-3.871h5.535zm21.078-.673c.217-.265.61-.49 1.132-.695.615-.24 1.407-.452 2.297-.662 3.051-.744 6.942-1.759 6.942-5.063 0-3.872-3.595-5.3-9.709-5.3-5.749 0-9.826.937-10.18 5.679a9.147 9.147 0 00-.026.695h6.221a.999.999 0 010-.078c.034-1.41 1.98-1.74 4.245-1.764 2.211 0 3.228.496 3.228 1.169 0 .83-1.962 1.313-4.426 1.919l-.067.016c-4.092.968-9.449 2.314-9.449 5.937v2.68h19.902v-4.533h-10.11zm3.461-5.985c-.001 0-.004-.005-.006-.015.006.01.007.014.006.015zm-21.853.662a.656.656 0 00-.664-.662h-6.86v1.313h6.86c.2 0 .34-.061.465-.186a.61.61 0 00.199-.465zm.696 0c0-.755-.603-1.357-1.36-1.357h-7.557v2.703h7.557c.378 0 .698-.13.958-.39a1.3 1.3 0 00.402-.956z" fill="#394149"/><path d="M81.57 70.242h2.969V66.18l2.973 4.063h1.484l2.974-4.063v4.063h2.968v-7.617h-3.71l-2.974 3.809-2.968-3.81h-3.715v7.618zm19.62-7.804c-2.866.006-5.21.833-5.2 3.718v.555c-.01 2.88 2.334 3.713 5.2 3.718 2.86-.005 5.205-.838 5.194-3.718v-.555c0-2.88-2.328-3.718-5.194-3.718zm2.226 4.086c.017 1.247-1.014 1.474-2.226 1.49-1.217-.016-2.248-.243-2.231-1.49v-.187c-.017-1.241 1.014-1.468 2.231-1.485 1.212.017 2.243.244 2.226 1.485v.187zm11.282-.079c0 .765-.436 1.394-1.206 1.394h-3.251v-2.788h3.251c.77 0 1.206.623 1.206 1.394zm-7.425-3.809v7.618h6.774c2.09.028 3.642-1.74 3.625-3.809.017-2.08-1.535-3.837-3.625-3.809h-6.774zm18.662 3.894c.017 1.252-1.013 1.468-2.226 1.485-1.217-.017-2.242-.233-2.231-1.485v-3.905h-2.968v4.092c-.011 2.88 2.345 3.707 5.199 3.712 2.855-.005 5.211-.833 5.2-3.712v-4.092h-2.974v3.905zm4.31-3.905v7.617h8.91v-2.414h-5.942v-5.203h-2.968zm9.923 7.629h8.91v-1.956h-5.942v-.975h5.942v-1.762h-5.942v-.975h5.942v-1.95h-8.91v7.618zM83.28 33.606V32h4.399c.213 0 .398.077.55.239a.76.76 0 01.233.567.782.782 0 01-.234.568.745.745 0 01-.55.232H83.28zm-3.602-4.36v9.42h3.602v-2.298h5.299c1.904.028 3.52-1.62 3.492-3.562.027-1.948-1.588-3.582-3.492-3.56h-8.9zM99.24 29c-3.478.007-6.324 1.03-6.31 4.599v.687c-.014 3.56 2.831 4.591 6.31 4.598 3.47-.007 6.316-1.037 6.302-4.598v-.687c0-3.561-2.825-4.599-6.303-4.599zm2.7 5.054c.021 1.542-1.23 1.823-2.7 1.844-1.478-.021-2.73-.302-2.709-1.844v-.231c-.02-1.535 1.23-1.816 2.708-1.837 1.471.021 2.722.302 2.701 1.837v.231zm17.644 1.156l-2.138-5.965h-4.055l-2.144 5.966-2.138-5.966h-4.055l4.055 9.422h4.282l2.028-4.71 2.027 4.71h4.282l4.056-9.422h-4.056l-2.144 5.966zm6.475 3.457h10.811v-2.419h-7.21v-1.205h7.21v-2.18h-7.21v-1.206h7.21v-2.412h-10.811v9.422zm12.729-9.429v9.422h3.601v-2.3h3.217l1.739 2.3h3.835l-2.014-2.643a3.483 3.483 0 001.457-1.29c.372-.575.557-1.22.557-1.928.028-1.948-1.588-3.582-3.491-3.56h-8.901zm7.993 2.755c.44 0 .791.358.791.806a.782.782 0 01-.234.568.75.75 0 01-.557.232h-4.392v-1.606h4.392z" fill="#394149"/></svg>