<svg data-name="Layer 1" xmlns="http://www.w3.org/2000/svg" viewBox="0 0 177.78 100"><path d="M55.32 42.25h3V56.7h-3zm4.68 9.5A5.25 5.25 0 1165.22 57 5.18 5.18 0 0160 51.75zm7.52 0a2.28 2.28 0 10-2.28 2.34 2.22 2.22 0 002.26-2.34z" fill="#394149"/><path d="M82.31 46.8v9.41c0 3.32-2.6 4.73-5.23 4.73a5 5 0 01-4.69-2.4l2.53-1.46a2.27 2.27 0 002.26 1.25 2 2 0 002.24-2.12v-.91a3.53 3.53 0 01-2.89 1.28 5 5 0 010-10 3.53 3.53 0 012.89 1.28v-1zm-2.89 4.75a2.4 2.4 0 10-2.4 2.3 2.24 2.24 0 002.4-2.3zm4.58.2A5.25 5.25 0 1189.24 57 5.19 5.19 0 0184 51.75zm7.52 0a2.28 2.28 0 10-2.27 2.34 2.22 2.22 0 002.26-2.34zm4.35-7.6a1.78 1.78 0 111.78 1.78 1.8 1.8 0 01-1.78-1.78zm.29 2.65h3v9.9h-3zM112 51.75a5 5 0 01-4.77 5.25 3.72 3.72 0 01-3-1.21v4.89h-3V46.8h3v.93a3.71 3.71 0 013-1.2 5 5 0 014.77 5.22zm-3 0a2.36 2.36 0 10-2.35 2.42 2.26 2.26 0 002.35-2.42zm12.13 1.98c0 2.28-2 3.25-4.12 3.25a4.34 4.34 0 01-4.26-2.36l2.58-1.46a1.62 1.62 0 001.67 1.17c.71 0 1.07-.22 1.07-.62 0-1.09-4.87-.51-4.87-3.94 0-2.16 1.82-3.24 3.88-3.24a4.34 4.34 0 013.92 2.11L118.42 50a1.46 1.46 0 00-1.33-.87c-.52 0-.83.2-.83.55 0 1.14 4.87.39 4.87 4.05zM132 46.8v9.9h-3v-.93a3.41 3.41 0 01-2.82 1.23c-2 0-3.71-1.43-3.71-4.1v-6.1h3v5.65a1.64 1.64 0 001.73 1.8c1.08 0 1.84-.64 1.84-2V46.8zm17 3.82v6.08h-3v-5.82c0-1-.47-1.62-1.42-1.62s-1.55.69-1.55 1.86v5.58h-3v-5.82c0-1-.47-1.62-1.42-1.62s-1.55.69-1.55 1.86v5.58h-3v-9.9h3v.91a3.06 3.06 0 012.66-1.18 2.93 2.93 0 012.59 1.3 3.26 3.26 0 012.87-1.3c2.34 0 3.82 1.62 3.82 4.09zM37.45 39.65V35.4h-13.4v29.2h13.4v-4.25a10.35 10.35 0 010-20.7zm0 0v20.7a10.35 10.35 0 000-20.7z" fill="#394149"/><circle cx="151.52" cy="44.54" r="2.2" fill="#394149"/></svg>