<svg width="177" height="100" fill="none" xmlns="http://www.w3.org/2000/svg"><path fill-rule="evenodd" clip-rule="evenodd" d="M47 21h83.726c16.016 0 29 12.984 29 29s-12.984 29-29 29H47c-16.016 0-29-12.984-29-29s12.984-29 29-29zm0 2.806c-14.466 0-26.194 11.728-26.194 26.194S32.535 76.194 47 76.194h83.726c14.466 0 26.193-11.728 26.193-26.194s-11.727-26.194-26.193-26.194H47z" fill="#394149"/><path fill-rule="evenodd" clip-rule="evenodd" d="M137.597 65.16c2.106-3.74 3.497-9.093 3.497-15.16s-1.391-11.42-3.497-15.16c-2.156-3.826-4.695-5.42-6.871-5.42s-4.716 1.594-6.871 5.42c-2.106 3.74-3.497 9.093-3.497 15.16s1.391 11.42 3.497 15.16c2.155 3.826 4.695 5.42 6.871 5.42s4.715-1.594 6.871-5.42zm-6.871 8.227c7.276 0 13.175-10.47 13.175-23.387 0-12.916-5.899-23.387-13.175-23.387-7.276 0-13.175 10.47-13.175 23.387 0 12.916 5.899 23.387 13.175 23.387z" fill="#394149"/><path fill-rule="evenodd" clip-rule="evenodd" d="M129.323 71.204V28.328h2.806v42.876h-2.806z" fill="#394149"/><path d="M88.73 39.454c.604-.008 1.118-.121 1.11-.742v-.094c.008-.618-.506-.731-1.11-.74-.607.009-1.121.122-1.113.74v.093c-.008.622.506.735 1.113.743zm-22.424-1.573a.323.323 0 01.229.554.311.311 0 01-.23.093h-1.804v-.647h1.805zm10.484-.008l.52 1.121h-1.042l.522-1.121zm23.71 1.121l-.52-1.121-.522 1.121h1.042zM63.057 61.486l-.769-1.658-.772 1.657h1.54zm17.24.551c.568 0 .89-.464.89-1.027 0-.568-.322-1.028-.89-1.028H77.9v2.055h2.397zm6.96-2.209l.769 1.657h-1.541l.772-1.657zm9.817.492a.478.478 0 00-.48-.48h-2.668v.957h2.668a.46.46 0 00.338-.138.46.46 0 00.142-.338zm8.347.69c0 .563-.322 1.027-.89 1.027h-2.397v-2.055h2.397c.568 0 .89.46.89 1.028zM50.127 44.118l2.785 6.43 2.921-6.43h4.628v10.715h-3.468v-5.787l-2.538 5.787h-3.113l-2.511-5.787v5.787H45.35V44.118h4.777zm24.54 10.715v-2.661h-7.685v-1.393h7.37v-2.607h-7.37v-1.379h7.59v-2.675H63.377v10.715h11.289zm8.177.164c-2.28 0-4.176-.682-5.241-2.061-.628-.805-1.01-2.02-1.01-3.44 0-1.283.327-2.43 1.037-3.344 1.079-1.338 3.03-2.225 5.938-2.225 3.344 0 5.31 1.024 6.156 2.744.12.25.209.559.26.839.031.164.05.318.054.444h-3.535c-.041-.191-.232-.478-.478-.683-.382-.341-1.201-.614-2.389-.614-1.324 0-2.225.26-2.757.86-.369.423-.56 1.065-.56 2.006 0 .901.191 1.502.519 1.925.491.573 1.406.942 2.826.942 1.364 0 2.416-.41 2.811-.874.069-.078.13-.177.183-.28a1.64 1.64 0 00.159-.443h-3.809v-2.307h7.126v6.347h-2.935l-.096-1.037a4.013 4.013 0 01-.418.302c-.874.551-2.129.9-3.84.9z" fill="#394149"/><path d="M80.763 49.523c0-.89.182-1.405.45-1.713.401-.452 1.135-.71 2.423-.71 1.146 0 1.832.269 2.093.502l.006.005.006.005c.09.075.172.168.234.258a.67.67 0 01.093.172h-3.504v3.195h3.566c-.127.144-.401.324-.837.469-.434.144-.99.24-1.63.24-1.348 0-2.107-.35-2.48-.779-.245-.32-.42-.811-.42-1.644zm17.627.485l1.017-1.942.961 1.942H98.39z" fill="#394149"/><path fill-rule="evenodd" clip-rule="evenodd" d="M102.243 52.854l.942 1.98h3.945l-5.406-10.716h-4.409l-5.72 10.715h3.864l.996-1.979h5.788zm-4.587-2.402l1.352-2.58.41-.983.382.97 1.283 2.593h-3.427z" fill="#394149"/><path fill-rule="evenodd" clip-rule="evenodd" d="M47 73.387c-7.368 0-13.94-3.407-18.226-8.731h12.301v-1.56H27.621A23.25 23.25 0 0123.8 52.963h17.276v-1.559h-17.42A23.733 23.733 0 0123.612 50c0-3.087.598-6.033 1.684-8.731h15.778v-1.56H25.993a23.485 23.485 0 017.077-8.497h83.726c-5.739 4.262-9.457 11.09-9.457 18.788a23.28 23.28 0 004.008 13.097h-1.436v1.559h2.588c4.242 5.268 10.72 8.659 17.993 8.73v.001H47zm39.137-34.86c-.006-1.437 1.164-1.85 2.593-1.852 1.43 0 2.59.418 2.59 1.853v.277c.006 1.435-1.164 1.85-2.59 1.853-1.43-.003-2.599-.418-2.593-1.853v-.277zm-41.81 2.037v-3.796h1.481v3.796h-1.48zm4.303-3.796l1.666 2.011v-2.01h1.483v3.795h-1.666l-2.04-2.319v2.32h-1.48v-3.797h2.037zm6.903 3.802v-2.593h1.76v-1.203h-5v1.203h1.76v2.593h1.48zm6.7 0H57.79v-3.796h4.443v.971H59.27v.486h2.963v.879H59.27v.486h2.963v.974zm.788-3.799v3.796h1.48v-.926h1.322l.714.926h1.576l-.827-1.065a1.424 1.424 0 00.828-1.296 1.433 1.433 0 00-1.435-1.435H63.02zm7.59-.003l1.666 2.011v-2.01h1.483v3.795h-1.667l-2.039-2.319v2.32h-1.48v-3.797h2.036zm3.262 3.802h1.666l.3-.65h1.9l.3.65h1.666l-2.036-3.796h-1.76l-2.036 3.796zm8.092-2.593v2.593h-1.48v-2.593h-1.76v-1.203h5v1.203h-1.76zm2.257-1.209v3.796h1.48v-3.796h-1.48zm11.245 2.011L93.8 36.77h-2.037v3.795h1.48v-2.319l2.04 2.32h1.666v-3.797h-1.483v2.011zm3.262 1.791h-1.667l2.037-3.796h1.76l2.036 3.796h-1.666l-.3-.65h-1.9l-.3.65zm4.282-3.802v3.796h4.443v-1.203h-2.963v-2.593h-1.48zM46.647 60.045c0-.447.835-.547 1.516-.547.685 0 1.265.104 1.516.547h2.292c-.209-1.754-1.841-1.975-3.808-1.988-1.97 0-3.808.385-3.808 1.988-.004 1.4 2.187 1.511 3.752 1.59h.01c.881.043 1.562.08 1.562.327 0 .434-.836.546-1.516.546-.685 0-1.265-.112-1.516-.547h-2.292c.209 1.742 1.841 1.98 3.808 1.984 1.97 0 3.808-.38 3.808-1.983.004-1.405-2.187-1.516-3.752-1.595h-.01c-.881-.042-1.562-.076-1.562-.322zm10.18 3.77v-3.833h2.601v-1.778h-7.39v1.778h2.601v3.833h2.188zm3.612 0h-2.464l3.01-5.611h2.602l3.01 5.611h-2.463l-.443-.96h-2.81l-.442.96zm11.804-2.647l-2.464-2.973h-3.01v5.612h2.188V60.38l3.014 3.428h2.464v-5.612h-2.192v2.973zm3.47 2.647v-5.611h4.993c1.54-.021 2.685 1.273 2.672 2.806.013 1.524-1.131 2.826-2.672 2.805h-4.994zm7.231 0h2.464l.442-.96h2.81l.443.96h2.463l-3.01-5.611h-2.601l-3.01 5.611zm8.794-.004V58.2h5.407c1.156-.013 2.138.96 2.12 2.12a2.104 2.104 0 01-1.223 1.916l1.224 1.575h-2.33l-1.056-1.37h-1.954v1.37h-2.188zm8.209-5.607v5.611h4.993c1.541.021 2.685-1.281 2.673-2.805.012-1.533-1.132-2.827-2.673-2.806h-4.993zm-43.398-2.927h4.355V43.674h-5.357l-2.625 5.779-2.503-5.779h-5.513v11.603h4.369v-4.093l1.776 4.093h3.694l1.805-4.114v4.114zm6.385 0h12.177v-3.55h-7.685v-.504h7.37v-3.495h-7.37v-.49h7.59v-3.564H62.933v11.603zm23.86 0h3.784v-7.235h-.092l-.004-.106a4.104 4.104 0 00-.358-1.458v-.002l-.002-.001c-.954-1.941-3.134-2.992-6.554-2.992-2.992 0-5.094.915-6.283 2.39l-.003.003-.002.004c-.784 1.008-1.131 2.257-1.131 3.616 0 1.491.4 2.81 1.103 3.712 1.182 1.53 3.24 2.233 5.593 2.233 1.653 0 2.937-.314 3.886-.853l.063.69zm8.938 0l.997-1.98h5.234l.941 1.98h4.947l-5.853-11.603h-4.949l-6.193 11.603h4.876zm12.074 14.29H44.272v-1.559h63.534v1.56z" fill="#394149"/><path d="M119.186 29.653a23.277 23.277 0 0111.306-3.039v-.001H47a23.28 23.28 0 00-11.54 3.04h83.726z" fill="#394149"/><path d="M130.726 70.58c11.366 0 20.58-9.214 20.58-20.58 0-11.366-9.214-20.58-20.58-20.58-7.618 0-14.269 4.138-17.828 10.29h-2.987v1.559h2.173A20.496 20.496 0 00110.145 50a20.5 20.5 0 004.704 13.097h-3.502A23.28 23.28 0 01107.339 50c0-12.916 10.47-23.387 23.387-23.387 12.916 0 23.387 10.47 23.387 23.387 0 12.916-10.471 23.387-23.387 23.387-7.368 0-13.94-3.407-18.227-8.731h3.778a20.514 20.514 0 0014.449 5.925z" fill="#394149"/><path d="M136.905 63.097h-24.343V60.29h25.441a24.06 24.06 0 01-1.098 2.807zm1.709 0h10.432V60.29h-9.408c-.302.992-.646 1.93-1.024 2.807zm.895-11.694h-30.767v-2.806h30.767a38.202 38.202 0 010 2.806zm1.56 0h11.68v-2.806h-11.68a38.273 38.273 0 010 2.806zm-3.065-11.693h-25.442v-2.807h24.343c.404.862.773 1.801 1.099 2.807zm1.634 0h9.408v-2.807h-10.432c.378.877.722 1.815 1.024 2.807z" fill="#394149"/></svg>