<svg data-name="logoipsum" xmlns="http://www.w3.org/2000/svg" viewBox="0 0 177.78 100"><path d="M38.79 54.79h3V69.5h-3zm4.74 9.67a5.34 5.34 0 115.34 5.33 5.28 5.28 0 01-5.34-5.33zm7.66 0a2.32 2.32 0 10-2.32 2.38 2.26 2.26 0 002.32-2.38z" fill="#394149"/><path d="M66.27 59.42V69c0 3.39-2.65 4.82-5.33 4.82a5.15 5.15 0 01-4.77-2.44l2.58-1.49A2.3 2.3 0 0061 71.16 2 2 0 0063.32 69v-.93a3.56 3.56 0 01-2.94 1.31 5.12 5.12 0 010-10.24 3.59 3.59 0 012.94 1.31v-1zm-2.95 4.84a2.44 2.44 0 10-2.44 2.34 2.28 2.28 0 002.44-2.34zm4.68.2a5.34 5.34 0 115.34 5.33A5.28 5.28 0 0168 64.46zm7.66 0a2.32 2.32 0 10-2.32 2.38 2.26 2.26 0 002.3-2.38zm4.41-7.74a1.82 1.82 0 111.82 1.82 1.83 1.83 0 01-1.82-1.82zm.31 2.7h3V69.5h-3zm16.08 5.04a5.06 5.06 0 01-4.81 5.33 3.83 3.83 0 01-3-1.23v5h-3V59.42h3v.95a3.83 3.83 0 013-1.23 5.06 5.06 0 014.81 5.32zm-3 0A2.4 2.4 0 1091 66.92a2.3 2.3 0 002.44-2.46zm12.34 2.02c0 2.32-2 3.31-4.2 3.31a4.42 4.42 0 01-4.33-2.4l2.62-1.49a1.66 1.66 0 001.71 1.19c.73 0 1.09-.23 1.09-.63 0-1.11-5-.52-5-4 0-2.2 1.86-3.31 4-3.31a4.43 4.43 0 013.94 2.16L103 62.69a1.49 1.49 0 00-1.36-.89c-.52 0-.84.2-.84.57.04 1.15 5 .38 5 4.11zm11.04-7.06V69.5h-3v-.94a3.45 3.45 0 01-2.88 1.23c-2 0-3.77-1.45-3.77-4.18v-6.19h3v5.75A1.66 1.66 0 00112 67c1.1 0 1.87-.64 1.87-2.07v-5.51zm17.34 3.9v6.18h-3v-5.92c0-1-.49-1.66-1.45-1.66s-1.58.71-1.58 1.9v5.68h-3v-5.92c0-1-.48-1.66-1.45-1.66s-1.57.71-1.57 1.9v5.68h-3V59.42h3v.93a3.1 3.1 0 012.7-1.21 3 3 0 012.64 1.33 3.32 3.32 0 012.92-1.33c2.28 0 3.79 1.66 3.79 4.18z" fill="#394149"/><circle cx="136.74" cy="57.12" r="2.24" fill="#394149"/><circle cx="72.74" cy="36.67" r="10.49" fill="#394149"/><circle cx="96.19" cy="36.67" r="10.49" fill="#394149"/><path fill="#394149" d="M38.81 26.18h20.97v20.97H38.81z"/></svg>