<svg width="177" height="100" fill="none" xmlns="http://www.w3.org/2000/svg"><path fill-rule="evenodd" clip-rule="evenodd" d="M89.676 34.407a3.554 3.554 0 015.025 5.026l-8.46 8.461a8.316 8.316 0 01.791-10.843l2.644-2.644z" fill="#4F9E91"/><path fill-rule="evenodd" clip-rule="evenodd" d="M101.771 53.497a3.553 3.553 0 11-5.025 5.025l-8.461-8.46a8.316 8.316 0 0110.843.791l2.643 2.644z" fill="#EBE1C5"/><path fill-rule="evenodd" clip-rule="evenodd" d="M82.682 65.592a3.553 3.553 0 11-5.025-5.025l8.46-8.461a8.315 8.315 0 01-.791 10.843l-2.644 2.643z" fill="#EBCC6E"/><path fill-rule="evenodd" clip-rule="evenodd" d="M70.587 46.503a3.554 3.554 0 115.025-5.025l8.461 8.46a8.316 8.316 0 01-10.843-.791l-2.643-2.644zm17.198 18.053a11.176 11.176 0 002.853-8.053l4.063 4.064.03.03v2.901a3.554 3.554 0 01-6.946 1.058z" fill="#ED834E"/><path fill-rule="evenodd" clip-rule="evenodd" d="M71.623 51.606a11.176 11.176 0 008.052 2.853l-4.063 4.063-.03.03H72.68a3.554 3.554 0 01-1.058-6.946z" fill="#4F9E91"/><path fill-rule="evenodd" clip-rule="evenodd" d="M100.735 48.394a11.175 11.175 0 00-8.053-2.853l4.064-4.063.03-.03h2.901a3.554 3.554 0 011.058 6.946z" fill="#EBCC6E"/><path fill-rule="evenodd" clip-rule="evenodd" d="M84.573 35.444a11.176 11.176 0 00-2.853 8.053l-4.063-4.064-.03-.03v-2.901a3.554 3.554 0 016.946-1.058z" fill="#EBE1C5"/><path fill-rule="evenodd" clip-rule="evenodd" d="M81.18 30.057a6.445 6.445 0 00-6.445 6.445v1.253a6.445 6.445 0 00-6.193 10.792l.886.887a6.445 6.445 0 003.252 12.01h1.254a6.445 6.445 0 0010.792 6.193l2.644-2.644a11.176 11.176 0 003.268-8.49l4.063 4.064a6.445 6.445 0 009.115-9.115l-.886-.886a6.445 6.445 0 00-3.253-12.01h-1.253a6.445 6.445 0 00-10.792-6.193l-2.644 2.644a11.176 11.176 0 00-3.268 8.49l-4.063-4.064-.03-.03v-2.901a3.554 3.554 0 016.946-1.058c.134-.149.272-.294.415-.437l1.757-1.758a6.442 6.442 0 00-5.565-3.192zm15.596 11.39l-.03.03-4.064 4.064a11.175 11.175 0 018.053 2.853 3.554 3.554 0 00-1.058-6.947h-2.901zM75.582 58.553l.03-.03 4.063-4.064a11.176 11.176 0 01-8.052-2.853 3.555 3.555 0 001.058 6.947h2.9zm-4.07-7.048zm19.666 18.438a6.442 6.442 0 01-5.565-3.192l1.757-1.758c.143-.143.281-.288.415-.437a3.555 3.555 0 006.947-1.058v-2.9a6.415 6.415 0 002.891 1.647v1.253a6.445 6.445 0 01-6.445 6.445zm3.523-35.535a3.554 3.554 0 00-5.025 0l-2.644 2.643a8.316 8.316 0 00-.792 10.843l8.461-8.46a3.554 3.554 0 000-5.026zm7.07 24.114a3.553 3.553 0 000-5.025l-2.643-2.644a8.316 8.316 0 00-10.843-.792l8.46 8.461a3.553 3.553 0 005.026 0zm-19.089 7.07a3.554 3.554 0 11-5.026-5.025l8.461-8.461a8.316 8.316 0 01-.791 10.843l-2.644 2.643zM70.586 41.478a3.554 3.554 0 000 5.025l2.644 2.644a8.316 8.316 0 0010.843.791l-8.46-8.46a3.554 3.554 0 00-5.026 0z" fill="#3D3A2C"/><path d="M18.533 43.09h3.16v9.821h5.429v2.66h-8.59V43.09zM32.86 55.84c-1.06 0-1.988-.191-2.785-.572-.798-.393-1.417-.928-1.858-1.607-.428-.69-.642-1.482-.642-2.375s.214-1.678.642-2.357c.44-.69 1.06-1.226 1.858-1.607.797-.393 1.726-.59 2.785-.59 1.06 0 1.988.197 2.786.59.797.38 1.41.916 1.839 1.607.44.678.66 1.464.66 2.357 0 .893-.22 1.684-.66 2.375-.428.678-1.042 1.214-1.84 1.607-.797.381-1.725.572-2.785.572zm0-2.447c.631 0 1.131-.184 1.5-.553.381-.381.572-.9.572-1.554 0-.655-.19-1.167-.572-1.536-.369-.38-.869-.571-1.5-.571-.63 0-1.137.19-1.518.571-.369.37-.553.881-.553 1.536s.184 1.173.553 1.554c.381.369.887.553 1.518.553zm11.19 6.286a9.576 9.576 0 01-1.733-.161 7.103 7.103 0 01-1.482-.429v-2.178c.94.405 2.012.607 3.214.607.87 0 1.494-.179 1.875-.536.393-.357.59-.88.59-1.571v-.518c-.346.298-.774.53-1.286.697a5.05 5.05 0 01-1.607.25c-.905 0-1.703-.191-2.393-.572a4.136 4.136 0 01-1.625-1.607c-.381-.69-.572-1.482-.572-2.375 0-.905.19-1.702.572-2.393a3.9 3.9 0 011.607-1.589c.69-.38 1.482-.571 2.375-.571 1.226 0 2.238.375 3.035 1.125V47h3.036v7.982c0 1.488-.458 2.643-1.375 3.465-.904.821-2.315 1.232-4.232 1.232zm.356-6.268c.488 0 .923-.125 1.304-.375.38-.25.649-.583.803-1v-1.5a2.012 2.012 0 00-.821-.982 2.293 2.293 0 00-1.286-.375c-.642 0-1.16.19-1.553.571-.393.37-.59.875-.59 1.518 0 .655.197 1.179.59 1.572.393.38.91.571 1.553.571zm11.333 2.429c-1.06 0-1.988-.191-2.786-.572-.797-.393-1.416-.928-1.857-1.607-.428-.69-.643-1.482-.643-2.375s.215-1.678.643-2.357c.44-.69 1.06-1.226 1.857-1.607.798-.393 1.726-.59 2.786-.59s1.988.197 2.786.59c.797.38 1.41.916 1.839 1.607.44.678.66 1.464.66 2.357 0 .893-.22 1.684-.66 2.375-.429.678-1.042 1.214-1.84 1.607-.797.381-1.726.572-2.785.572zm0-2.447c.63 0 1.13-.184 1.5-.553.38-.381.571-.9.571-1.554 0-.655-.19-1.167-.571-1.536-.37-.38-.87-.571-1.5-.571s-1.137.19-1.518.571c-.369.37-.553.881-.553 1.536s.184 1.173.553 1.554c.381.369.887.553 1.518.553zm55.693-10.303h3.161v12.482h-3.161V43.09zm4.761 3.91h3.036v.858c.797-.75 1.809-1.125 3.035-1.125.893 0 1.685.19 2.375.571a3.897 3.897 0 011.607 1.59c.381.678.572 1.47.572 2.374 0 .893-.191 1.69-.572 2.393a4.013 4.013 0 01-1.607 1.607c-.678.381-1.47.572-2.375.572-.571 0-1.119-.09-1.642-.268a3.708 3.708 0 01-1.286-.697v4.607h-3.143V47zm5.25 6.393c.643 0 1.161-.19 1.553-.571.393-.381.59-.9.59-1.554 0-.655-.197-1.166-.59-1.535-.392-.381-.91-.572-1.553-.572-.476 0-.905.125-1.286.375a2.012 2.012 0 00-.821.982v1.518c.167.417.44.75.821 1 .381.238.81.357 1.286.357zm10.06 2.447c-.69 0-1.41-.072-2.16-.215-.75-.13-1.346-.321-1.786-.571V52.75c.488.286 1.071.524 1.75.715.69.178 1.321.267 1.893.267.416 0 .72-.03.91-.089.191-.06.286-.178.286-.357a.384.384 0 00-.196-.34c-.119-.094-.346-.19-.679-.285-.321-.107-.696-.22-1.125-.34-.726-.214-1.297-.434-1.714-.66-.417-.226-.726-.512-.929-.857-.202-.345-.303-.78-.303-1.304 0-.928.363-1.619 1.089-2.071.738-.464 1.744-.696 3.018-.696.619 0 1.268.065 1.946.196.691.131 1.208.304 1.554.518v2.268c-.357-.238-.834-.435-1.429-.59a6.418 6.418 0 00-1.643-.232c-.404 0-.72.042-.946.125-.226.072-.339.203-.339.393 0 .179.113.316.339.41.226.096.631.215 1.214.358.381.095.542.137.482.125.762.202 1.351.428 1.768.678.417.25.708.548.875.893.179.334.268.762.268 1.286 0 .821-.357 1.476-1.071 1.964-.703.476-1.727.715-3.072.715zm8.835 0c-1.178 0-2.065-.328-2.66-.983-.583-.654-.875-1.517-.875-2.589V47h3.143v4.911c0 .988.446 1.482 1.339 1.482a2.19 2.19 0 001.107-.286c.333-.19.607-.47.821-.839V47h3.143v8.572h-3.035v-.929c-.369.393-.816.69-1.34.893a4.514 4.514 0 01-1.643.303zm7.627-8.84h2.911v.929c.357-.38.768-.673 1.232-.875a3.492 3.492 0 011.482-.321c.643 0 1.155.095 1.536.285.393.19.708.477.946.857a3.783 3.783 0 011.304-.839 4.195 4.195 0 011.553-.303c1.131 0 1.935.291 2.411.875.476.571.714 1.398.714 2.482v5.482h-3v-5.036c0-.476-.089-.821-.268-1.036-.178-.214-.476-.321-.892-.321-.536 0-.971.19-1.304.571.012.203.018.512.018.929v4.893h-3v-5.16c0-.441-.077-.757-.232-.947-.155-.19-.429-.286-.821-.286-.608 0-1.131.34-1.572 1.018v5.375h-3.018V47z" fill="#3D3A2C"/></svg>