<svg xmlns="http://www.w3.org/2000/svg" viewBox="0 0 177.778 100"><path d="M41.419 48.371a3.656 3.656 0 00-1.046 2.929l-.018-.018a4.344 4.344 0 01-4.694 4.694l.018.018A3.678 3.678 0 1039 59.312l.019.018a4.344 4.344 0 014.694-4.694l-.019-.018a3.671 3.671 0 10-2.272-6.247z" fill="#394149"/><path d="M34.042 53.636l-.019-.018A3.631 3.631 0 0038 49.644l.019.018a4.344 4.344 0 014.694-4.694l-.019-.018a3.678 3.678 0 10-3.318-3.318l-.018-.019a4.343 4.343 0 01-4.694 4.694l.018.019a3.631 3.631 0 00-3.977 3.974l-.018-.018a4.345 4.345 0 01-4.694 4.694l.018.018a3.678 3.678 0 103.318 3.318l.019.018a4.344 4.344 0 014.694-4.694z" fill="#394149"/><path d="M27.34 51.629a3.652 3.652 0 001.045-2.929l.019.018a4.344 4.344 0 014.696-4.694l-.019-.018a3.677 3.677 0 10-3.318-3.318l-.018-.018a4.344 4.344 0 01-4.694 4.694l.018.018a3.671 3.671 0 102.273 6.247zm30.977-9.974h2.97v14.453h-2.97zm4.652 9.504a5.247 5.247 0 115.247 5.226 5.188 5.188 0 01-5.247-5.226zm7.524 0a2.278 2.278 0 10-2.277 2.341 2.221 2.221 0 002.277-2.341zm14.807-4.95v9.4c0 3.326-2.594 4.732-5.227 4.732a5.062 5.062 0 01-4.692-2.4l2.534-1.465a2.262 2.262 0 002.257 1.247 1.973 1.973 0 002.237-2.118V54.7a3.516 3.516 0 01-2.891 1.287 5.031 5.031 0 010-10.057 3.516 3.516 0 012.891 1.287v-1.01zm-2.89 4.751a2.4 2.4 0 10-2.395 2.3 2.24 2.24 0 002.395-2.3zm4.572.199a5.247 5.247 0 115.247 5.226 5.188 5.188 0 01-5.247-5.226zm7.524 0a2.278 2.278 0 10-2.277 2.341 2.221 2.221 0 002.277-2.341zm4.355-7.603a1.782 1.782 0 111.782 1.782 1.8 1.8 0 01-1.782-1.782zm.3 2.653h2.971v9.9h-2.975zm15.795 4.95a4.971 4.971 0 01-4.732 5.226 3.715 3.715 0 01-2.949-1.208v4.891h-2.97V46.209h2.97v.93a3.717 3.717 0 012.949-1.207 4.97 4.97 0 014.732 5.227zm-2.97 0a2.356 2.356 0 10-2.355 2.415 2.26 2.26 0 002.355-2.415zm12.135 1.979c0 2.277-1.979 3.247-4.117 3.247a4.335 4.335 0 01-4.257-2.356l2.573-1.465a1.627 1.627 0 001.68 1.168c.712 0 1.069-.218 1.069-.613 0-1.09-4.871-.515-4.871-3.94 0-2.159 1.822-3.247 3.881-3.247a4.329 4.329 0 013.86 2.118l-2.534 1.366a1.437 1.437 0 00-1.326-.871c-.515 0-.832.2-.832.554.004 1.129 4.874.376 4.874 4.039zm10.849-6.929v9.9H132v-.931a3.382 3.382 0 01-2.83 1.208c-2 0-3.7-1.425-3.7-4.1v-6.077h2.97v5.642a1.632 1.632 0 001.722 1.8c1.089 0 1.841-.633 1.841-2.039v-5.4zM152 50.03v6.078h-2.97v-5.821c0-.99-.475-1.623-1.425-1.623-.99 0-1.545.693-1.545 1.861v5.583h-2.969v-5.821c0-.99-.475-1.623-1.426-1.623-.99 0-1.544.693-1.544 1.861v5.583h-2.97v-9.9h2.97v.91a3.039 3.039 0 012.653-1.187 2.945 2.945 0 012.593 1.306 3.262 3.262 0 012.871-1.306c2.273.001 3.762 1.624 3.762 4.099z" fill="#394149"/><circle cx="154.512" cy="43.944" r="2.204" fill="#394149"/></svg>