<svg xmlns="http://www.w3.org/2000/svg" viewBox="0 0 177.778 100"><path d="M40.99 58.759L23.05 46.384c-1.818-1.254-1.2-3.865 1.067-4.479l19.067-5.175a2.7 2.7 0 013.616 2.492l-1.13 17.549c-.134 2.083-2.862 3.242-4.68 1.988z" fill="#e9327c"/><path d="M35.3 61.814L24.731 41.145a2.883 2.883 0 013.007-4.161l19.587 3.023a2.883 2.883 0 012.127 4.162l-9.023 17.646a2.883 2.883 0 01-5.129-.001z" fill="#1dace3"/><path d="M46.752 39.918l-9.764-1.507L25 41.666l4.785 9.361 11.205 7.732a2.888 2.888 0 00.806.383l4.256-8.323zm49.457 2.416a1.835 1.835 0 111.835 1.835 1.854 1.854 0 01-1.835-1.835zm.306 2.732h3.059V55.26h-3.059zm16.269 5.097a5.119 5.119 0 01-4.872 5.383 3.829 3.829 0 01-3.038-1.244v5.036h-3.058V45.066h3.058v.958a3.829 3.829 0 013.038-1.243 5.118 5.118 0 014.872 5.382zm-3.058 0a2.427 2.427 0 10-2.426 2.488 2.327 2.327 0 002.426-2.488zm12.497 2.037c0 2.345-2.039 3.344-4.241 3.344a4.463 4.463 0 01-4.383-2.427l2.65-1.508a1.675 1.675 0 001.733 1.2c.734 0 1.1-.225 1.1-.632 0-1.122-5.015-.53-5.015-4.058 0-2.222 1.875-3.343 4-3.343a4.46 4.46 0 013.975 2.181l-2.609 1.407a1.481 1.481 0 00-1.366-.9c-.53 0-.856.2-.856.571-.003 1.17 5.012.395 5.012 4.165zm11.177-7.134V55.26h-3.058v-.96a3.489 3.489 0 01-2.916 1.244c-2.059 0-3.812-1.468-3.812-4.221v-6.257h3.058v5.811a1.681 1.681 0 001.774 1.855c1.121 0 1.9-.652 1.9-2.1v-5.566zM150.928 49v6.26h-3.058v-5.994c0-1.019-.49-1.672-1.468-1.672-1.02 0-1.59.714-1.59 1.917v5.749h-3.059v-5.994c0-1.019-.489-1.672-1.468-1.672-1.019 0-1.59.714-1.59 1.917v5.749h-3.058V45.066h3.063V46a3.129 3.129 0 012.732-1.223 3.034 3.034 0 012.671 1.345 3.359 3.359 0 012.957-1.345c2.34.004 3.868 1.675 3.868 4.223z" fill="#001a49"/><circle cx="153.519" cy="42.733" r="2.27" fill="#001a49"/><path d="M54.457 40.377h3.059V55.26h-3.059zm4.791 9.786a5.4 5.4 0 115.4 5.383 5.343 5.343 0 01-5.4-5.383zm7.748 0a2.345 2.345 0 10-2.345 2.406A2.287 2.287 0 0067 50.163zm15.249-5.1v9.685c0 3.425-2.671 4.872-5.382 4.872a5.212 5.212 0 01-4.832-2.467l2.609-1.509a2.331 2.331 0 002.325 1.285 2.032 2.032 0 002.3-2.181v-.938a3.622 3.622 0 01-2.977 1.325 5.181 5.181 0 010-10.357 3.622 3.622 0 012.977 1.325v-1.04zm-2.976 4.893a2.47 2.47 0 10-2.469 2.369 2.308 2.308 0 002.469-2.366zm4.708.2a5.4 5.4 0 115.4 5.383 5.343 5.343 0 01-5.4-5.376zm7.748 0a2.346 2.346 0 10-2.345 2.406 2.287 2.287 0 002.345-2.399z" fill="#001a49"/></svg>