<svg width="177" height="100" fill="none" xmlns="http://www.w3.org/2000/svg"><path d="M125.798 36.352c.388-1.624-.401-3.14-1.223-4.368-.905-1.353-2.417-2.552-4.106-2.984.306 1.533 1.199 2.855 2.059 4.099.854 1.235 1.931 2.486 3.27 3.253zm-72.59-4.37c-.824 1.228-1.615 2.743-1.228 4.367 1.34-.765 2.418-2.016 3.274-3.25.86-1.243 1.755-2.565 2.062-4.097-1.69.43-3.202 1.628-4.108 2.98z" fill="#394149"/><path d="M50.802 39.465a8.714 8.714 0 00.008-3.901c-.253-1.06-.621-2.56-1.832-3.065-.88 1.412-1.235 3.335-.722 4.776.371 1.042 1.039 2.42 2.422 2.634 1.27.292 2.554-.385 3.568-.944 1.127-.622 2.232-1.611 2.903-2.787-1.231-.621-2.633-.117-3.688.366-1.136.521-2.18 1.639-2.66 2.921zm24.641-5.223v6.459h-2.205v-2.345h-3.307v2.345h-2.205v-6.459h2.205v2.354h3.307v-2.354h2.205zm7.312 0h2.435l-3.456 4.328v2.131h-2.213v-2.123l-3.414-4.336h2.51l2.04 2.584 2.098-2.584z" fill="#394149"/><path fill-rule="evenodd" clip-rule="evenodd" d="M93.552 36.57c0-.847-.247-1.43-.683-1.776-.42-.37-1.094-.552-1.982-.552h-5.011v6.459h2.213v-1.81s2.534.008 2.83 0c.955-.008 1.687-.239 2.131-.749.33-.362.502-.88.502-1.571zm-2.221.034c0 .205-.033.354-.099.469-.132.205-.403.312-.864.312h-2.295v-1.58h2.312c.427 0 .69.1.83.305.075.099.116.28.116.494z" fill="#394149"/><path d="M101.237 39.097V40.7h-6.804v-6.459h6.747v1.613h-4.575v.831h4.443v1.571h-4.443v.84h4.632z" fill="#394149"/><path fill-rule="evenodd" clip-rule="evenodd" d="M109.934 36.209c0-.584-.139-1.004-.436-1.308-.386-.412-1.053-.659-2.073-.659h-5.142v6.459h2.197v-2.279h1.999l1.604 2.279h2.452l-1.95-2.633c.436-.066.79-.329 1.02-.642.206-.288.329-.715.329-1.217zm-2.139.205a.691.691 0 01-.074.338c-.082.164-.296.23-.65.23h-2.583v-1.176h2.542c.346 0 .576.057.691.271.058.082.074.214.074.337z" fill="#394149"/><path d="M100.059 48.802c0-1.477-.938-2.252-3.126-2.49-.355-.043-1.4-.15-2.058-.204-1.692-.184-2.198-.28-2.198-.712 0-.388.398-.57 1.918-.57 1.078 0 1.681.204 1.918.517.119.15.162.269.173.387h3.103a2.948 2.948 0 00-.312-.948c-.56-1.077-1.908-1.94-4.807-1.94-3.265 0-5.054 1.154-5.054 2.662 0 1.455 1.013 2.306 3.75 2.554.316.027 1.002.092 1.552.144h.009l.293.029c1.433.15 1.821.247 1.821.7 0 .42-.377.647-1.961.647-1.229 0-1.95-.184-2.21-.496a1.059 1.059 0 01-.204-.453h-3.104c.033.216.087.56.205.84.528 1.186 1.908 2.091 5.108 2.091 3.438 0 5.184-.97 5.184-2.758z" fill="#394149"/><path fill-rule="evenodd" clip-rule="evenodd" d="M78.542 49.039c0 .582-.162 1.153-.485 1.53-.496.603-1.423.862-2.619.862h-7.51v-8.46h7.306c1.163 0 1.907.28 2.316.701.367.367.528.852.528 1.401 0 .55-.129 1.002-.41 1.336-.225.28-.613.496-1.023.55.604.075 1.175.377 1.498.797.27.313.399.787.399 1.283zm-3.632-2.964a.727.727 0 00.173-.495c0-.205-.065-.378-.205-.496-.151-.14-.431-.194-.84-.194H70.75v1.38h3.362c.366 0 .646-.055.797-.195zm-.485 3.438c.507 0 .809-.065.98-.226.109-.108.152-.27.152-.474 0-.216-.054-.378-.183-.507-.162-.14-.442-.205-.916-.205H70.75v1.412h3.674z" fill="#394149"/><path d="M88.689 49.33v2.101h-8.912v-8.46h8.837v2.113h-5.992v1.088h5.82v2.059h-5.82v1.099h6.067zm21.856-6.358v2.123h-3.578v6.336h-2.952v-6.336h-3.567v-2.123h10.097zm-.256 15.913v.032h-.475l-.034-.458c-.145.232-.452.51-1.1.51-1.095 0-1.604-.66-1.604-2.345 0-1.303.324-2.351 1.661-2.351 1.159 0 1.512.758 1.529 1.575h-.579c-.017-.533-.255-1.025-.938-1.025-.822 0-1.06.492-1.06 1.818 0 1.384.296 1.818 1.072 1.818.544 0 .862-.3.967-.66v-.862h-1.17v-.527h1.725v1.331c0 .479.005.996.006 1.138v.006z" fill="#394149"/><path fill-rule="evenodd" clip-rule="evenodd" d="M69.658 57.764h-1.621l-.348 1.153h-.608l1.436-4.586h.747l1.344 4.586h-.614l-.336-1.153zm-1.465-.515h1.32s-.538-1.864-.544-1.893l-.029-.136-.064-.304-.098.44-.585 1.893z" fill="#394149"/><path d="M75.002 54.33h.556l-1.082 4.587h-.69s-.77-3.567-.77-3.718c-.005.151-.793 3.718-.793 3.718h-.689l-1.083-4.586h.626s.84 3.63.84 3.775c0-.145.77-3.775.77-3.775h.688s.77 3.636.77 3.775c0-.139.858-3.775.858-3.775z" fill="#394149"/><path fill-rule="evenodd" clip-rule="evenodd" d="M76.315 57.764h1.621l.336 1.153h.614l-1.343-4.586h-.747l-1.436 4.586h.608l.347-1.153zm1.477-.515h-1.32s.573-1.853.584-1.893l.099-.44.049.231.043.209c.006.029.545 1.893.545 1.893zm3.325-2.919c.706 0 1.089.33 1.089 1.292 0 .817-.307 1.089-.626 1.181l.88 2.114h-.637l-.816-1.998h-1.112v1.998h-.579V54.33h1.801zm-.087 2.068c.458 0 .568-.237.568-.759 0-.59-.174-.77-.597-.77h-1.1v1.529h1.13zm4.718 2.003c.232-.33.313-.77.313-1.852 0-.979-.07-1.396-.301-1.732-.209-.312-.66-.486-1.24-.486h-1.534v4.586h1.575c.59 0 .955-.197 1.187-.516zm-.51-.324c-.15.203-.445.296-.799.296h-.868V54.88h.857c.353 0 .654.093.81.307.168.249.209.637.209 1.36 0 .863-.046 1.31-.209 1.53z" fill="#394149"/><path d="M92.17 54.33h.556l-1.083 4.587h-.689s-.77-3.567-.77-3.718c-.006.151-.793 3.718-.793 3.718h-.69L87.62 54.33h.625s.84 3.63.84 3.775c0-.145.77-3.775.77-3.775h.689s.77 3.636.77 3.775c0-.139.857-3.775.857-3.775zm1.58 4.587V54.33h-.603v4.586h.603zm3.77-4.587v4.587h-.666l-1.709-3.556v3.556h-.561V54.33h.7l1.668 3.503V54.33h.567zm3.754 4.587V54.33h-.567v3.503l-1.668-3.503h-.7v4.586h.561V55.36l1.708 3.556h.666zm1.421-4.587v4.587h-.602V54.33h.602zm3.77 4.587V54.33h-.567v3.503l-1.668-3.503h-.701v4.586h.562V55.36l1.708 3.556h.666zm-31.91 9.038l-.663-2.042-.664 2.042h-2.147l1.737 1.263-.663 2.042 1.737-1.262 1.737 1.262-.664-2.042 1.738-1.263h-2.148zm6.997-2.042l.677 2.043h2.19l-1.772 1.262.677 2.042-1.772-1.262-1.773 1.262.677-2.042-1.773-1.262h2.192l.677-2.043zm8.277 2.043l-.677-2.043-.677 2.043h-2.191l1.772 1.262-.677 2.042 1.773-1.262 1.772 1.262-.677-2.042 1.773-1.262h-2.191zm6.923-2.043l.677 2.043h2.19l-1.772 1.262.677 2.042-1.772-1.262-1.773 1.262.677-2.042-1.773-1.262h2.192l.677-2.043zm8.323 2.043l-.663-2.043-.664 2.043h-2.147l1.737 1.262-.663 2.042 1.737-1.262 1.737 1.262-.664-2.042 1.738-1.262h-2.148zM49.892 45.048c-1.41.034-2.375-1.159-3-2.111-.823-1.256-.986-3.153-.475-4.703 1.3.269 2.027 1.616 2.55 2.612a8.475 8.475 0 01.938 3.752c.161-1.307.913-2.58 1.89-3.276.935-.666 2.19-1.373 3.5-.991-.358 1.242-1.205 2.391-2.144 3.177-.871.73-1.978 1.604-3.26 1.54z" fill="#394149"/><path d="M50.309 50.179c-1.308.219-2.583-.582-3.412-1.524-1.066-1.214-1.7-2.841-1.571-4.47 1.343.034 2.36 1.195 3.112 2.073a8.713 8.713 0 011.792 3.473c-.14-1.28.29-2.66 1.086-3.514.77-.823 1.847-1.721 3.188-1.577-.028 1.297-.678 2.532-1.349 3.458-.625.862-1.588 1.929-2.846 2.08z" fill="#394149"/><path d="M52.093 55.461c-1.535.587-2.996-.189-4.2-.973-1.497-.974-2.612-2.87-2.893-4.696 1.477-.183 2.944.792 3.962 1.718 1.12 1.02 2.178 2.122 2.901 3.484-.49-1.324-.367-2.828.27-4.091.61-1.209 1.757-2.199 3.14-2.322.242 1.35-.107 2.77-.628 4.004-.492 1.163-1.293 2.43-2.552 2.876z" fill="#394149"/><path d="M55.194 60.399c1.185-.709 1.662-2.2 1.857-3.477.21-1.377.201-2.896-.37-4.203-1.376.384-2.32 1.621-2.63 2.977a5.437 5.437 0 00.748 4.177c-1.064-1.221-2.48-2.23-3.836-2.937-1.31-.683-2.918-1.507-4.491-1.01.758 1.853 2.382 3.577 4.18 4.29 1.394.552 3.089 1.098 4.542.183z" fill="#394149"/><path d="M59.949 64.918c1.032-1.024 1.037-2.71.863-4.04-.195-1.493-.632-3.066-1.566-4.291-1.337.682-1.958 2.214-1.92 3.645.043 1.6.916 3.188 2.113 4.27-1.5-1.066-3.294-1.846-4.977-2.33l-.087-.025c-1.508-.434-3.37-.97-4.894-.132 1.247 1.877 3.575 3.287 5.642 3.678 1.54.29 3.536.545 4.826-.775z" fill="#394149"/><path d="M66.803 68.682c.76-1.447.007-3.145-.593-4.4-.71-1.484-1.679-2.997-3.066-4.083-1.333 1.148-1.206 2.791-.81 4.219.471 1.698 2.104 3.145 3.795 3.97a21.802 21.802 0 00-6.132-1.299l-.206-.013c-1.635-.106-3.763-.245-5.066.951 1.97 1.675 4.767 2.64 7.233 2.59 1.652-.033 3.92-.229 4.845-1.935zm57.514-32.137c1.136.522 2.18 1.641 2.657 2.925a8.715 8.715 0 01-.004-3.903c.253-1.06.623-2.559 1.835-3.064.879 1.413 1.231 3.337.716 4.777-.372 1.042-1.041 2.42-2.425 2.632-1.27.291-2.553-.387-3.566-.947-1.127-.622-2.23-1.612-2.9-2.788 1.231-.62 2.632-.115 3.687.368z" fill="#394149"/><path d="M125.979 41.324c.976.696 1.725 1.969 1.886 3.275.014-1.309.37-2.66.942-3.749.523-.996 1.253-2.342 2.552-2.61.51 1.55.345 3.447-.48 4.703-.624.95-1.59 2.141-2.996 2.11-1.283.065-2.391-.812-3.263-1.543-.938-.787-1.784-1.936-2.14-3.18 1.31-.38 2.564.328 3.499.994z" fill="#394149"/><path d="M126.452 46.22c.798.855 1.226 2.24 1.083 3.52a8.71 8.71 0 011.796-3.477c.753-.878 1.771-2.038 3.115-2.071.127 1.63-.509 3.257-1.576 4.469-.83.942-2.107 1.743-3.415 1.521-1.258-.154-2.219-1.22-2.843-2.083-.67-.926-1.319-2.162-1.346-3.459 1.341-.143 2.418.756 3.186 1.58z" fill="#394149"/><path d="M125.631 50.905c.636 1.264.757 2.768.266 4.092.724-1.362 1.783-2.464 2.904-3.482 1.019-.925 2.487-1.9 3.964-1.715-.282 1.826-1.399 3.72-2.897 4.694-1.204.782-2.663 1.556-4.196.971-1.261-.444-2.062-1.715-2.554-2.88-.521-1.233-.868-2.655-.625-4.004 1.383.124 2.53 1.115 3.138 2.324z" fill="#394149"/><path d="M123.71 55.697a5.442 5.442 0 01-.752 4.174c1.065-1.22 2.481-2.226 3.837-2.932 1.311-.682 2.919-1.504 4.492-1.006-.76 1.852-2.385 3.575-4.185 4.287-1.395.552-3.094 1.097-4.549.175-1.178-.711-1.652-2.199-1.846-3.474-.208-1.378-.198-2.897.375-4.203 1.375.385 2.318 1.623 2.628 2.979z" fill="#394149"/><path d="M116.942 60.874c-.175 1.33-.172 3.016.86 4.04 1.288 1.322 3.285 1.068 4.825.779 2.068-.389 4.396-1.797 5.645-3.674-1.522-.84-3.386-.304-4.894.129l-.087.024c-1.683.483-3.477 1.262-4.978 2.326 1.198-1.081 2.071-2.668 2.115-4.267.04-1.432-.58-2.964-1.916-3.647-.935 1.224-1.373 2.797-1.57 4.29z" fill="#394149"/><path d="M110.944 68.674c.924 1.706 3.191 1.904 4.843 1.938 2.466.053 5.264-.912 7.235-2.584-1.301-1.197-3.429-1.06-5.064-.955l-.207.013a21.81 21.81 0 00-6.133 1.293c1.692-.823 3.326-2.269 3.799-3.966.397-1.428.526-3.07-.806-4.22-1.388 1.085-2.359 2.597-3.07 4.08-.598 1.248-1.348 2.935-.61 4.377l.013.024z" fill="#394149"/></svg>