<svg width="177" height="100" fill="none" xmlns="http://www.w3.org/2000/svg"><path d="M44.5 32a17.501 17.501 0 00-12.374 29.874A17.502 17.502 0 0044.5 67v-8.75a8.749 8.749 0 01-3.349-16.834 8.749 8.749 0 013.349-.666V32z" fill="#0F52FF"/><circle cx="44.5" cy="49.5" r="5.833" fill="#0F52FF"/><path d="M27 49.5a17.501 17.501 0 0029.874 12.374A17.502 17.502 0 0062 49.5h-8.75a8.749 8.749 0 01-16.834 3.349 8.749 8.749 0 01-.666-3.349H27zm23.333 0a5.834 5.834 0 00-11.666 0h11.666z" fill="#5BD0F4"/><path d="M71.14 42.925h-2.174V55h2.174V42.925zm1.419 7.797c0 2.794 1.932 4.52 4.485 4.52 2.553 0 4.485-1.725 4.485-4.52 0-2.794-1.932-4.52-4.485-4.52-2.553 0-4.485 1.726-4.485 4.52zm2.173 0c0-1.656.966-2.622 2.312-2.622 1.345 0 2.311.966 2.311 2.622s-.966 2.622-2.311 2.622c-1.346 0-2.312-.966-2.312-2.622zm14.564-4.278V47.6h-.172c-.518-.742-1.346-1.398-2.83-1.398-2.035 0-3.864 1.726-3.864 4.382 0 2.656 1.829 4.381 3.864 4.381 1.484 0 2.312-.672 2.795-1.345h.172v.828c0 1.656-.965 2.415-2.38 2.415s-2.139-.759-2.432-1.742l-1.95.845c.449 1.294 1.76 2.725 4.416 2.725 2.726 0 4.52-1.431 4.52-4.191v-8.056h-2.139zm-2.346 6.658c-1.346 0-2.346-.965-2.346-2.518s1-2.519 2.346-2.519 2.346.967 2.346 2.519-1 2.518-2.346 2.518zm5.891-2.38c0 2.794 1.932 4.52 4.485 4.52 2.553 0 4.485-1.725 4.485-4.52 0-2.794-1.932-4.52-4.485-4.52-2.553 0-4.485 1.726-4.485 4.52zm2.174 0c0-1.656.966-2.622 2.311-2.622 1.346 0 2.312.966 2.312 2.622s-.966 2.622-2.312 2.622c-1.345 0-2.311-.966-2.311-2.622z" fill="#0F52FF"/><path d="M103.517 43.96c0 .88.673 1.483 1.536 1.483.862 0 1.535-.603 1.535-1.483 0-.88-.673-1.483-1.535-1.483-.863 0-1.536.603-1.536 1.483zm2.622 2.484h-2.173V55h2.173v-8.556zm1.937 12.006h2.174v-4.554h.172c.483.69 1.311 1.346 2.795 1.346 2.035 0 3.864-1.725 3.864-4.52 0-2.794-1.829-4.52-3.864-4.52-1.484 0-2.312.656-2.829 1.398h-.173v-1.156h-2.139V58.45zm4.485-5.072c-1.345 0-2.346-.965-2.346-2.656 0-1.69 1.001-2.657 2.346-2.657 1.346 0 2.346.967 2.346 2.657s-1 2.657-2.346 2.657zm5.788-4.536c0 1.69 1.414 2.311 3.208 2.656l.449.087c1.069.206 1.552.465 1.552 1.017 0 .552-.483.984-1.483.984-1.001 0-1.811-.414-2.036-1.657l-2.001.518c.294 1.794 1.794 2.794 4.037 2.794 2.173 0 3.588-1.017 3.588-2.811s-1.449-2.277-3.381-2.657l-.449-.086c-.897-.172-1.38-.414-1.38-.983 0-.518.449-.846 1.277-.846.828 0 1.414.346 1.621 1.277l1.967-.604c-.414-1.38-1.673-2.328-3.588-2.328-2.036 0-3.381.948-3.381 2.639zM135.426 55v-8.556h-2.173v4.416c0 1.587-.776 2.519-2.105 2.519-1.173 0-1.828-.639-1.828-1.932v-5.003h-2.174v5.106c0 2.122 1.329 3.588 3.33 3.588 1.569 0 2.294-.69 2.639-1.414h.172V55h2.139zm1.928-8.556V55h2.174v-5.106c0-1.173.552-1.828 1.552-1.828.863 0 1.38.482 1.38 1.414V55h2.174v-5.106c0-1.173.552-1.828 1.552-1.828.863 0 1.38.482 1.38 1.414V55h2.174v-5.623c0-2.07-1.277-3.071-2.864-3.071-1.397 0-2.035.621-2.449 1.346h-.173c-.397-.811-1.104-1.346-2.346-1.346s-1.915.552-2.242 1.208h-.173v-1.07h-2.139z" fill="#5BD0F4"/></svg>