<svg data-name="logoipsum" xmlns="http://www.w3.org/2000/svg" viewBox="0 0 177.78 100"><path d="M67.88 57.39a2.65 2.65 0 01-1.67-.48 1.56 1.56 0 01-.63-1.31v-9.27a.26.26 0 01.29-.29h1.68c.19 0 .28.1.28.29v8.55c0 .38.17.57.52.57a1.44 1.44 0 00.44-.05c.2 0 .31.06.32.24l.15 1.25a.26.26 0 01-.24.31 3.77 3.77 0 01-1.14.19zm9.45-1.07a4.71 4.71 0 01-6 0 4 4 0 010-5.63 4.73 4.73 0 016 0 4.06 4.06 0 010 5.62zM72.91 55a2.13 2.13 0 002.86 0 2.24 2.24 0 000-2.94 2.13 2.13 0 00-2.86 0 2.24 2.24 0 000 2.94zm14.8-5.13c.19 0 .28.1.28.29v7.17a3.26 3.26 0 01-1.11 2.57 4.2 4.2 0 01-2.91 1 4.68 4.68 0 01-2.71-.75 3 3 0 01-1.31-2c0-.2 0-.29.27-.29h1.68a.37.37 0 01.33.23 1.31 1.31 0 00.61.71 2.34 2.34 0 001.12.26 1.77 1.77 0 001.29-.46 1.7 1.7 0 00.47-1.25v-.63a3.35 3.35 0 01-2.08.65 3.88 3.88 0 01-2.84-1.09 4 4 0 010-5.56 3.91 3.91 0 012.84-1.08 3.36 3.36 0 012.13.69v-.16a.26.26 0 01.28-.29zm-3.88 5.72A1.76 1.76 0 0085.2 55a2.45 2.45 0 000-3 1.75 1.75 0 00-1.36-.58 1.8 1.8 0 00-1.39.59 2.12 2.12 0 00-.54 1.5 2.16 2.16 0 00.53 1.49 1.81 1.81 0 001.39.59zm12.79.73a4.73 4.73 0 01-6 0 4.07 4.07 0 010-5.63 4.74 4.74 0 016 0 4.06 4.06 0 010 5.62zM92.19 55a2 2 0 001.44.55 2 2 0 001.43-.55 2.27 2.27 0 000-2.94 2 2 0 00-1.43-.55 2 2 0 00-1.44.55 2.27 2.27 0 000 2.94zm9.17-6.83a1.45 1.45 0 01-1.91 0 1.21 1.21 0 010-1.76 1.48 1.48 0 011.91 0 1.21 1.21 0 010 1.76zm.21 9.22a2.69 2.69 0 01-1.67-.48 1.58 1.58 0 01-.62-1.31v-5.44a.26.26 0 01.29-.29h1.68c.19 0 .28.1.28.29v4.72q0 .57.51.57a1.55 1.55 0 00.45-.05c.2 0 .31.06.32.24l.15 1.25a.26.26 0 01-.24.31 3.79 3.79 0 01-1.15.19zm7.57-7.76a3.92 3.92 0 012.86 1.08 4.1 4.1 0 010 5.59 3.89 3.89 0 01-2.86 1.09 3.44 3.44 0 01-2.09-.65v3.61c0 .19-.1.28-.29.28h-1.68a.24.24 0 01-.28-.28v-8.2a.52.52 0 00-.59-.59h-.33q-.33 0-.33-.24v-1.18a.32.32 0 01.23-.33 3 3 0 011.08-.18 1.85 1.85 0 011.81 1 3.37 3.37 0 012.47-1zM107.58 55a1.91 1.91 0 002.76 0 2.16 2.16 0 00.55-1.53 2.13 2.13 0 00-.55-1.53 1.91 1.91 0 00-2.76 0 2.21 2.21 0 00-.53 1.53 2.24 2.24 0 00.53 1.53zm10.24 2.39a4.82 4.82 0 01-2.57-.62 2.44 2.44 0 01-1.16-1.77c0-.2.07-.3.29-.3h1.47a.38.38 0 01.33.22c.21.54.76.81 1.64.81a1.87 1.87 0 00.89-.18.58.58 0 00.34-.49c0-.26-.16-.44-.48-.56a5.41 5.41 0 00-1.17-.25A11.12 11.12 0 01116 54a2.3 2.3 0 01-1.17-.67 2.14 2.14 0 01.43-3.1 4.12 4.12 0 012.42-.64 4.42 4.42 0 012.36.59 2.23 2.23 0 011.1 1.57q0 .3-.27.3h-1.48a.31.31 0 01-.3-.18 1 1 0 00-.52-.53 1.76 1.76 0 00-.86-.2 1.74 1.74 0 00-.85.17.5.5 0 00-.32.46.64.64 0 00.48.59 5.42 5.42 0 001.19.3 13.08 13.08 0 011.39.26 2.3 2.3 0 011.17.67 1.89 1.89 0 01.49 1.37 2 2 0 01-.93 1.74 4.37 4.37 0 01-2.51.69zm14.01-.5a.27.27 0 01-.23.31 3.86 3.86 0 01-1.13.19 2.22 2.22 0 01-2-.87 3.62 3.62 0 01-2.55.87 3.1 3.1 0 01-2.34-.91 3.28 3.28 0 01-.89-2.41v-3.91c0-.19.09-.29.28-.29h1.68c.19 0 .28.1.28.29v3.61a1.77 1.77 0 00.43 1.23 1.5 1.5 0 001.15.47 1.66 1.66 0 001.2-.44 1.6 1.6 0 00.45-1.19v-3.68c0-.19.09-.29.28-.29h1.7c.19 0 .28.1.28.29v4.71c0 .39.17.58.5.58a1.58 1.58 0 00.46-.05.26.26 0 01.33.24zm15.89 0a.25.25 0 01-.23.31 3.88 3.88 0 01-1.15.19 2.67 2.67 0 01-1.67-.48 1.56 1.56 0 01-.67-1.31v-2.35a1.77 1.77 0 00-.42-1.23 1.42 1.42 0 00-1.12-.47 1.25 1.25 0 00-1 .44 1.78 1.78 0 00-.38 1.18v3.69c0 .19-.09.29-.28.29h-1.69a.26.26 0 01-.29-.29v-3.61a1.85 1.85 0 00-.39-1.23 1.3 1.3 0 00-1-.47 1.45 1.45 0 00-1.1.44 1.65 1.65 0 00-.41 1.18v3.69a.26.26 0 01-.29.29H134c-.19 0-.28-.1-.28-.29v-4.71a.52.52 0 00-.59-.59h-.33q-.33 0-.33-.24v-1.18a.32.32 0 01.23-.33 3 3 0 011.08-.18 1.88 1.88 0 011.78.92 3.38 3.38 0 012.54-.92 2.87 2.87 0 012.37 1.06 3.3 3.3 0 012.62-1.06 3.16 3.16 0 012.37.91 3.26 3.26 0 01.89 2.41v1.93c0 .38.17.57.49.57a1.5 1.5 0 00.46-.05q.31 0 .33.24zM30.46 48.57a13.69 13.69 0 0126.57 0h-1.2a9.69 9.69 0 00-5.67 1.73 2.86 2.86 0 01-.3.19h-.14a2.86 2.86 0 01-.3-.19 10.17 10.17 0 00-11.35 0 2.86 2.86 0 01-.3.19h-.14a2.86 2.86 0 01-.3-.19 9.69 9.69 0 00-5.67-1.73zm23.21 6.27a3.37 3.37 0 012.16-.71h1.61v-3.21h-1.61A6.38 6.38 0 0052 52.14a3.64 3.64 0 01-4.32 0 6.8 6.8 0 00-7.77 0 3.64 3.64 0 01-4.32 0 6.38 6.38 0 00-3.88-1.22h-1.66v3.21h1.61a3.37 3.37 0 012.16.71 6.78 6.78 0 007.76 0 3.39 3.39 0 012.16-.71 3.35 3.35 0 012.16.71 6.8 6.8 0 007.77 0zm0 5.74a3.37 3.37 0 012.16-.71h1.61v-3.21h-1.61A6.38 6.38 0 0052 57.88a3.64 3.64 0 01-4.32 0 6.8 6.8 0 00-7.77 0 3.64 3.64 0 01-4.32 0 6.38 6.38 0 00-3.88-1.22h-1.66v3.21h1.61a3.37 3.37 0 012.16.71 6.78 6.78 0 007.76 0 3.39 3.39 0 012.16-.71 3.35 3.35 0 012.16.71 6.8 6.8 0 007.77 0z" fill="#394149"/></svg>