<?xml version="1.0" encoding="utf-8"?>
<!-- Generator: Adobe Illustrator 16.0.0, SVG Export Plug-In . SVG Version: 6.00 Build 0)  -->
<!DOCTYPE svg PUBLIC "-//W3C//DTD SVG 1.1//EN" "http://www.w3.org/Graphics/SVG/1.1/DTD/svg11.dtd">
<svg version="1.1" id="Layer_1" xmlns="http://www.w3.org/2000/svg" xmlns:xlink="http://www.w3.org/1999/xlink" x="0px" y="0px"
	 width="189px" height="56.301px" viewBox="0 0 189 56.301" enable-background="new 0 0 189 56.301" xml:space="preserve">
<rect x="-0.016" y="0.126" fill="#FFFFFF" width="189.016" height="56.175"/>
<line fill="none" stroke="#010101" stroke-width="0.4065" stroke-linecap="round" stroke-linejoin="round" stroke-miterlimit="10" x1="1.203" y1="28.417" x2="188.187" y2="28.417"/>
<line fill="none" stroke="#010101" stroke-width="0.4065" stroke-miterlimit="10" x1="188.187" y1="26.792" x2="188.187" y2="30.042"/>
<line fill="none" stroke="#010101" stroke-width="0.4065" stroke-miterlimit="10" x1="1.203" y1="30.042" x2="1.203" y2="26.792"/>
<path fill="none" stroke="#404040" stroke-width="1.2194" stroke-linecap="round" stroke-linejoin="round" stroke-miterlimit="10" d="
	M131.077,28.417c0,0-1.627-10.162,2.845-10.568c1.956-0.178,2.979,1.824,3.511,4.129"/>
<polygon fill="#404040" points="137.822,26.513 139.133,21.831 135.731,22.124 "/>
<polygon fill="none" stroke="#404040" stroke-width="1.2194" stroke-miterlimit="10" points="137.822,26.513 139.133,21.831 
	135.731,22.124 "/>
<path fill="none" stroke="#404040" stroke-width="0.5691" stroke-linecap="round" stroke-linejoin="round" stroke-miterlimit="10" d="
	M50.186,28.417c0,0-4.018-10.684-23.576-10.568c-11.539,0.068-17.246,3.734-19.983,6.73"/>
<polygon fill="#404040" points="4.778,27.567 7.746,25.272 5.505,23.886 "/>
<polygon fill="none" stroke="#404040" stroke-width="0.5691" stroke-miterlimit="10" points="4.778,27.567 7.746,25.272 
	5.505,23.886 "/>
<path fill="none" stroke="#404040" stroke-width="0.813" stroke-linecap="round" stroke-linejoin="round" stroke-miterlimit="10" d="
	M4.252,28.417c0,0,15.854,11.38,43.494,10.974c23.289-0.342,33.305-4.146,41.717-8.497"/>
<polygon fill="#404040" points="92.902,29.05 88.771,29.603 90.154,32.183 "/>
<polygon fill="none" stroke="#404040" stroke-width="0.813" stroke-miterlimit="10" points="92.902,29.05 88.771,29.603 
	90.154,32.183 "/>
<path fill="none" stroke="#404040" stroke-width="0.5691" stroke-linecap="round" stroke-linejoin="round" stroke-miterlimit="10" d="
	M55.47,28.417c0,0-4.019-10.684-23.575-10.568c-11.541,0.068-17.246,3.734-19.984,6.73"/>
<polygon fill="#404040" points="10.063,27.567 13.029,25.272 10.789,23.886 "/>
<polygon fill="none" stroke="#404040" stroke-width="0.5691" stroke-miterlimit="10" points="10.063,27.567 13.029,25.272 
	10.789,23.886 "/>
<path fill="none" stroke="#404040" stroke-width="0.5691" stroke-linecap="round" stroke-linejoin="round" stroke-miterlimit="10" d="
	M61.811,28.417c0,0-4.018-10.684-23.576-10.568c-11.539,0.068-17.244,3.734-19.983,6.73"/>
<polygon fill="#404040" points="16.404,27.567 19.371,25.272 17.131,23.886 "/>
<polygon fill="none" stroke="#404040" stroke-width="0.5691" stroke-miterlimit="10" points="16.404,27.567 19.371,25.272 
	17.131,23.886 "/>
<path fill="none" stroke="#404040" stroke-width="0.5691" stroke-linecap="round" stroke-linejoin="round" stroke-miterlimit="10" d="
	M68.152,28.417c0,0-4.019-10.684-23.576-10.568c-11.54,0.068-17.246,3.734-19.984,6.73"/>
<polygon fill="#404040" points="22.744,27.567 25.712,25.272 23.473,23.886 "/>
<polygon fill="none" stroke="#404040" stroke-width="0.5691" stroke-miterlimit="10" points="22.744,27.567 25.712,25.272 
	23.473,23.886 "/>
<path fill="none" stroke="#404040" stroke-width="0.5691" stroke-linecap="round" stroke-linejoin="round" stroke-miterlimit="10" d="
	M74.492,28.417c0,0-4.018-10.684-23.576-10.568c-11.539,0.068-17.244,3.734-19.982,6.73"/>
<polygon fill="#404040" points="29.086,27.567 32.053,25.272 29.813,23.886 "/>
<polygon fill="none" stroke="#404040" stroke-width="0.5691" stroke-miterlimit="10" points="29.086,27.567 32.053,25.272 
	29.813,23.886 "/>
<path fill="none" stroke="#404040" stroke-width="0.5691" stroke-linecap="round" stroke-linejoin="round" stroke-miterlimit="10" d="
	M80.834,28.417c0,0-4.018-10.684-23.575-10.568c-11.54,0.068-17.246,3.734-19.984,6.73"/>
<polygon fill="#404040" points="35.428,27.567 38.395,25.272 36.153,23.886 "/>
<polygon fill="none" stroke="#404040" stroke-width="0.5691" stroke-miterlimit="10" points="35.428,27.567 38.395,25.272 
	36.153,23.886 "/>
<path fill="none" stroke="#404040" stroke-width="0.5691" stroke-linecap="round" stroke-linejoin="round" stroke-miterlimit="10" d="
	M87.175,28.417c0,0-4.018-10.684-23.575-10.568c-11.54,0.068-17.246,3.734-19.984,6.73"/>
<polygon fill="#404040" points="41.769,27.567 44.736,25.272 42.494,23.886 "/>
<polygon fill="none" stroke="#404040" stroke-width="0.5691" stroke-miterlimit="10" points="41.769,27.567 44.736,25.272 
	42.494,23.886 "/>
<path fill="none" stroke="#404040" stroke-width="0.813" stroke-linecap="round" stroke-linejoin="round" stroke-miterlimit="10" d="
	M9.537,28.417c0,0,15.853,11.38,43.494,10.974c23.289-0.342,33.304-4.146,41.715-8.497"/>
<polygon fill="#404040" points="98.188,29.05 94.057,29.603 95.438,32.183 "/>
<polygon fill="none" stroke="#404040" stroke-width="0.813" stroke-miterlimit="10" points="98.188,29.05 94.057,29.603 
	95.438,32.183 "/>
<path fill="none" stroke="#404040" stroke-width="0.813" stroke-linecap="round" stroke-linejoin="round" stroke-miterlimit="10" d="
	M15.879,28.417c0,0,15.852,11.38,43.492,10.974c23.291-0.342,33.305-4.146,41.718-8.497"/>
<polygon fill="#404040" points="104.53,29.05 100.399,29.603 101.78,32.183 "/>
<polygon fill="none" stroke="#404040" stroke-width="0.813" stroke-miterlimit="10" points="104.53,29.05 100.399,29.603 
	101.78,32.183 "/>
<path fill="none" stroke="#404040" stroke-width="0.813" stroke-linecap="round" stroke-linejoin="round" stroke-miterlimit="10" d="
	M22.22,28.417c0,0,15.853,11.38,43.493,10.974c23.29-0.342,33.306-4.146,41.718-8.497"/>
<polygon fill="#404040" points="110.871,29.05 106.74,29.603 108.122,32.183 "/>
<polygon fill="none" stroke="#404040" stroke-width="0.813" stroke-miterlimit="10" points="110.871,29.05 106.74,29.603 
	108.122,32.183 "/>
<path fill="none" stroke="#404040" stroke-width="0.813" stroke-linecap="round" stroke-linejoin="round" stroke-miterlimit="10" d="
	M28.561,28.417c0,0,15.853,11.38,43.493,10.974c23.291-0.342,33.306-4.146,41.717-8.497"/>
<polygon fill="#404040" points="117.212,29.05 113.081,29.603 114.463,32.183 "/>
<polygon fill="none" stroke="#404040" stroke-width="0.813" stroke-miterlimit="10" points="117.212,29.05 113.081,29.603 
	114.463,32.183 "/>
<path fill="none" stroke="#404040" stroke-width="0.813" stroke-linecap="round" stroke-linejoin="round" stroke-miterlimit="10" d="
	M34.902,28.417c0,0,15.852,11.38,43.492,10.974c23.292-0.342,33.306-4.146,41.717-8.497"/>
<polygon fill="#404040" points="123.552,29.05 119.423,29.603 120.804,32.183 "/>
<polygon fill="none" stroke="#404040" stroke-width="0.813" stroke-miterlimit="10" points="123.552,29.05 119.423,29.603 
	120.804,32.183 "/>
<path fill="none" stroke="#404040" stroke-width="0.813" stroke-linecap="round" stroke-linejoin="round" stroke-miterlimit="10" d="
	M41.243,28.417c0,0,15.853,11.38,43.493,10.974c23.29-0.342,33.306-4.146,41.718-8.497"/>
<polygon fill="#404040" points="129.894,29.05 125.763,29.603 127.146,32.183 "/>
<polygon fill="none" stroke="#404040" stroke-width="0.813" stroke-miterlimit="10" points="129.894,29.05 125.763,29.603 
	127.146,32.183 "/>
<path fill="none" stroke="#404040" stroke-width="1.2194" stroke-linecap="round" stroke-linejoin="round" stroke-miterlimit="10" d="
	M124.735,28.417c0,0-0.163-13.414,9.593-13.82c5.206-0.217,7.749,3.732,8.989,7.465"/>
<polygon fill="#404040" points="144.144,26.538 144.997,21.751 141.638,22.37 "/>
<polygon fill="none" stroke="#404040" stroke-width="1.2194" stroke-miterlimit="10" points="144.144,26.538 144.997,21.751 
	141.638,22.37 "/>
<path fill="none" stroke="#404040" stroke-width="1.2194" stroke-linecap="round" stroke-linejoin="round" stroke-miterlimit="10" d="
	M118.394,28.417c0,0,3.544-17.133,15.935-16.666c7.354,0.277,12.136,6.096,14.81,10.783"/>
<polygon fill="#404040" points="151.018,26.677 150.69,21.825 147.581,23.237 "/>
<polygon fill="none" stroke="#404040" stroke-width="1.2194" stroke-miterlimit="10" points="151.018,26.677 150.69,21.827 
	147.581,23.237 "/>
<path fill="none" stroke="#404040" stroke-width="1.2194" stroke-linecap="round" stroke-linejoin="round" stroke-miterlimit="10" d="
	M112.053,28.417c0,0,5.669-19.24,22.275-18.699c10.456,0.342,17.253,7.668,20.854,13.047"/>
<polygon fill="#404040" points="157.386,26.745 156.675,21.937 153.687,23.589 "/>
<polygon fill="none" stroke="#404040" stroke-width="1.2194" stroke-miterlimit="10" points="157.386,26.745 156.675,21.937 
	153.687,23.589 "/>
<path fill="none" stroke="#404040" stroke-width="1.2194" stroke-linecap="round" stroke-linejoin="round" stroke-miterlimit="10" d="
	M105.712,28.417c0,0,5.988-20.445,27.396-21.137c14.396-0.467,23.952,9.252,28.667,15.668"/>
<polygon fill="#404040" points="164.203,26.8 163.22,22.038 160.331,23.858 "/>
<polygon fill="none" stroke="#404040" stroke-width="1.2194" stroke-miterlimit="10" points="164.203,26.802 163.22,22.038 
	160.331,23.858 "/>
<path fill="none" stroke="#404040" stroke-width="1.2194" stroke-linecap="round" stroke-linejoin="round" stroke-miterlimit="10" d="
	M99.37,28.417c0,0,9.41-24.871,34.611-24.059c17.487,0.564,29.465,11.928,35.16,18.834"/>
<polygon fill="#404040" points="171.82,26.872 170.521,22.187 167.761,24.196 "/>
<polygon fill="none" stroke="#404040" stroke-width="1.2194" stroke-miterlimit="10" points="171.82,26.872 170.521,22.187 
	167.761,24.196 "/>
<path fill="none" stroke="#404040" stroke-width="1.2194" stroke-linecap="round" stroke-linejoin="round" stroke-miterlimit="10" d="
	M92.866,28.417c0,0,12.768-27.988,40.814-26.768c20.244,0.879,35.955,14.436,43.13,21.908"/>
<polygon fill="#404040" points="179.813,26.981 178.095,22.433 175.528,24.685 "/>
<polygon fill="none" stroke="#404040" stroke-width="1.2194" stroke-miterlimit="10" points="179.813,26.981 178.095,22.433 
	175.528,24.685 "/>
</svg>
